<svg width="403" height="504" viewBox="0 0 403 504" fill="none" xmlns="http://www.w3.org/2000/svg">
<ellipse cx="201.5" cy="252" rx="201.5" ry="201.302" fill="#CDE4FD"/>
<g clip-path="url(#clip0)">
<path d="M144.959 346.126H64.105V418.707H144.959V346.126Z" fill="#33393C"/>
<path d="M164.505 138.424H82.7607V349.313H164.505V138.424Z" fill="#33393C"/>
<path d="M164.282 114.823H113.693V146.241H164.282V114.823Z" fill="#33393C"/>
<path d="M344.09 238.126H270.505V418.671H344.09V238.126Z" fill="#33393C"/>
<path d="M346.649 246.054H267.946V252.834H346.649V246.054Z" fill="#33393C"/>
<path d="M346.649 234.754H267.946V241.534H346.649V234.754Z" fill="#33393C"/>
<path d="M113.693 286.698H33.0986V418.67H113.693V286.698Z" fill="#3877F6"/>
<path d="M379.399 321.857H304.182V418.706H379.399V321.857Z" fill="#3877F6"/>
<path d="M73.4143 272.877H41.9257V290.476H73.4143V272.877Z" fill="#3877F6"/>
<path d="M77.3828 266.542H38.2539V272.878H77.3828V266.542Z" fill="#3877F6"/>
<path d="M258.34 191.812H124.115V280.769H258.34V191.812Z" fill="#3877F6"/>
<path d="M247.881 181.735H134.389V192.998H247.881V181.735Z" fill="#3877F6"/>
<path d="M294.316 279.288H124.115V419.262H294.316V279.288Z" fill="#3877F6"/>
<path d="M46.966 425.1C43.1461 423.56 44.2855 418.669 48.4041 418.669H373.266C376.155 418.669 377.953 421.57 376.334 423.962C371.201 431.548 359.281 444.604 338.044 444.604C317.831 444.604 300.102 438.157 277.997 438.195C233.898 438.269 202.224 461.536 167.027 461.573C131.014 461.647 127.638 434.749 96.0386 435.305C77.2293 435.651 58.9379 429.927 46.966 425.1Z" fill="#FCD285"/>
<path d="M285.563 371.47H134.389V406.778H285.563V371.47Z" fill="white"/>
<path d="M285.563 328.528H134.389V363.837H285.563V328.528Z" fill="white"/>
<path d="M285.563 285.624H134.389V320.932H285.563V285.624Z" fill="#FCD285"/>
<path d="M248.066 242.682H134.389V277.991H248.066V242.682Z" fill="white"/>
<path d="M248.066 199.779H134.389V235.087H248.066V199.779Z" fill="white"/>
<path d="M193.583 418.669C193.583 418.669 180.119 427.265 172.664 434.897C167.806 439.862 168.881 452.718 191.691 453.014C210.458 453.237 287.047 453.089 318.758 453.126C358.258 453.163 342.161 444.53 332.11 444.048C322.689 444.122 314.79 438.861 304.961 438.491C283.635 437.676 217.542 437.12 211.534 437.009C202.447 436.824 205.154 433.415 211.793 427.932C219.174 421.818 223.003 418.669 223.003 418.669H193.583Z" fill="#33393C"/>
<path d="M286.083 133.088C286.083 133.088 252.257 133.273 242.688 133.273C233.12 133.273 229.448 126.752 231.302 121.38C235.382 109.376 249.142 114.785 249.142 114.785C249.142 114.785 243.171 95.4082 264.645 96.4085C276.625 96.9643 273.954 107.931 273.954 107.931C273.954 107.931 280.779 104.3 287.344 108.487C293.983 112.711 289.198 118.416 289.198 118.416C289.198 118.416 295.837 117.342 298.062 123.455C299.657 127.827 296.171 133.088 286.083 133.088Z" fill="white"/>
<path d="M287.492 217.489C287.492 217.489 351.471 217.489 364.452 217.489C377.433 217.489 383.627 212.969 382.44 205.226C380.919 194.926 368.346 196.593 368.346 196.593C368.346 196.593 380.066 187.96 370.534 179.105C362.152 171.288 353.51 179.402 353.51 179.402C353.51 179.402 346.909 158.691 329.032 162.359C307.26 166.805 309.968 189.516 309.968 189.516C309.968 189.516 301.92 182.514 293.018 188.331C284.006 194.185 287.492 200.15 287.492 200.15C287.492 200.15 278.405 196.667 276.477 203.373C274.733 209.523 273.769 217.489 287.492 217.489Z" fill="white"/>
<path d="M180.861 105.412C180.861 105.412 109.316 105.412 94.8147 105.412C80.3129 105.412 73.3773 100.373 74.6754 91.7038C76.3815 80.1813 90.4382 82.0708 90.4382 82.0708C90.4382 82.0708 77.3458 72.4378 87.9903 62.5084C97.3738 53.7646 107.054 62.8048 107.054 62.8048C107.054 62.8048 114.361 39.6115 134.389 43.7241C158.756 48.7258 155.715 74.1051 155.715 74.1051C155.715 74.1051 164.727 66.2875 174.667 72.7713C184.756 79.3291 180.861 85.9981 180.861 85.9981C180.861 85.9981 191.061 82.1078 193.175 89.5919C195.14 96.5203 196.179 105.412 180.861 105.412Z" fill="white"/>
<path d="M91.5138 196.333C91.5138 196.333 48.3051 196.555 36.0657 196.555C23.8264 196.555 19.1531 188.256 21.5268 181.364C26.7564 166.063 44.3366 172.954 44.3366 172.954C44.3366 172.954 36.6962 148.205 64.1421 149.464C79.4227 150.168 76.0476 164.173 76.0476 164.173C76.0476 164.173 84.7636 159.542 93.1828 164.914C101.676 170.324 95.5565 177.585 95.5565 177.585C95.5565 177.585 104.05 176.215 106.869 184.032C108.871 189.59 104.421 196.333 91.5138 196.333Z" fill="white"/>
<path d="M343.025 397.805C343.025 397.805 341.763 422.272 343.025 428.127C344.288 433.982 336.569 436.41 337.045 431.221C337.522 426.033 339.356 401.542 339.356 401.542L343.025 397.805Z" fill="#33393C"/>
<path d="M334.543 414.704C338.475 412.824 344.741 411.776 350.602 414.585C357.75 418.012 369.925 417.251 360.728 408.92C351.531 400.59 349.077 394.997 351.34 395.759C356.749 397.591 358.917 400.542 359.965 398.4C361.014 396.258 357.916 391.498 353.866 386.976C349.816 382.478 342.215 375.29 347.481 376.313C352.746 377.337 357.821 382.573 355.248 376.885C353.151 372.267 342.978 366.555 346.456 365.96C349.935 365.365 352.031 363.866 350.65 361.581C348.172 357.463 346.599 356.892 343.931 353.013C341.262 349.109 341.381 344.659 339.428 346.158C336.449 348.467 334.472 353.441 334.114 357.297C333.328 365.698 321.606 372.434 325.085 372.934C328.539 373.434 330.159 371.506 332.756 372.125C338.403 373.457 316.055 390.832 321.797 391.308C327.443 391.76 328.873 386.786 330.922 387.5C337.784 389.904 314.816 404.351 320.105 405.16C324.203 405.802 327.801 400.971 331.78 402.851C336.902 405.255 310.599 418.655 317.174 420.321C322.654 421.701 328.873 417.441 334.543 414.704Z" fill="#33393C"/>
<path d="M81.9447 372.025C81.9447 372.025 79.979 410.112 81.9447 419.227C83.9104 428.341 71.8936 432.12 72.6354 424.043C73.3772 415.966 76.233 377.842 76.233 377.842L81.9447 372.025Z" fill="#33393C"/>
<path d="M70.1876 413.298C75.2687 410.853 83.3912 409.482 90.9945 413.15C100.267 417.596 116.03 416.595 104.124 405.814C92.2184 395.032 89.0288 387.771 91.9588 388.771C98.9686 391.142 101.787 394.995 103.16 392.18C104.532 389.401 100.489 383.213 95.2597 377.397C89.9931 371.543 80.1645 362.243 86.9889 363.577C93.8132 364.911 100.378 371.691 97.04 364.318C94.3325 358.353 81.1288 350.943 85.6166 350.165C90.1043 349.387 92.8489 347.46 91.0687 344.496C87.8419 339.161 85.802 338.42 82.3898 333.381C78.9406 328.343 79.0889 322.563 76.5669 324.489C72.7096 327.49 70.1505 333.937 69.6683 338.902C68.6298 349.794 53.4604 358.501 57.9853 359.168C62.4731 359.798 64.55 357.316 67.9251 358.131C75.2317 359.872 46.2652 382.398 53.7201 382.991C61.0266 383.584 62.881 377.137 65.5514 378.064C74.4157 381.176 44.7074 399.886 51.5318 400.96C56.8355 401.813 61.5087 395.551 66.6641 397.959C73.303 401.072 39.2183 418.448 47.7487 420.597C54.7956 422.338 62.8439 416.818 70.1876 413.298Z" fill="#33393C"/>
<path d="M210.236 215.155C210.162 214.895 210.05 214.71 209.902 214.562C210.681 214.154 211.163 213.339 211.163 212.413C211.163 211.042 210.05 209.968 208.715 209.968C207.38 209.968 206.267 211.079 206.267 212.413C206.267 213.413 206.861 214.303 207.751 214.673C207.12 215.488 206.786 217.526 206.453 219.23C206.082 221.157 207.009 222.861 207.009 222.861L208.344 228.456C208.344 228.456 207.417 228.641 206.453 229.011C205.525 229.382 205.711 230.16 205.711 230.16H210.236C210.236 230.16 210.977 222.12 211.163 221.157C211.348 220.157 210.607 216.34 210.236 215.155Z" fill="#656C70"/>
<path d="M230.004 228.975C230.931 228.604 231.896 228.419 231.896 228.419L231.413 224.269C231.413 224.269 233.157 223.491 233.898 223.565C233.935 223.306 233.973 223.047 234.01 222.787C234.343 221.046 234.677 219.045 235.308 218.23C234.418 217.86 233.824 216.97 233.824 215.97C233.824 214.599 234.937 213.525 236.272 213.525C237.644 213.525 238.72 214.636 238.72 215.97C238.72 216.896 238.201 217.711 237.459 218.119C237.607 218.267 237.719 218.489 237.793 218.712C238.164 219.897 238.98 223.713 238.72 224.677C238.201 226.9 234.047 226.307 234.047 226.307C234.047 226.307 234.047 226.27 234.01 226.159C233.898 227.937 233.787 230.086 233.787 230.086H229.262C229.262 230.123 229.04 229.382 230.004 228.975Z" fill="#656C70"/>
<path d="M236.68 230.123C238.974 230.123 240.834 228.265 240.834 225.973C240.834 223.681 238.974 221.823 236.68 221.823C234.386 221.823 232.526 223.681 232.526 225.973C232.526 228.265 234.386 230.123 236.68 230.123Z" fill="#656C70"/>
<path d="M174.482 227.418C175.483 227.492 176.41 227.789 176.41 227.789L177.041 225.121C177.078 225.01 177.115 224.936 177.152 224.825L178.042 222.639C177.931 222.379 177.152 220.786 177.523 219.045C177.894 217.341 178.228 215.303 178.858 214.488C178.005 214.117 177.375 213.228 177.375 212.228C177.375 210.857 178.487 209.782 179.86 209.782C181.232 209.782 182.308 210.894 182.308 212.265C182.308 213.191 181.788 214.006 181.01 214.414C181.158 214.562 181.269 214.784 181.343 215.044C181.714 216.229 182.382 220.045 182.233 221.009C182.122 221.675 181.9 222.157 181.566 222.491C181.566 223.009 181.64 225.38 181.64 225.38L183.457 228.678L181.751 230.382H179.86C179.86 230.382 179.674 229.826 180.045 229.456C180.231 229.271 180.972 228.9 180.972 228.9L181.529 228.344L179.6 225.899C179.563 225.788 179.526 225.714 179.526 225.603L179.452 224.862C179.081 225.418 178.747 225.899 178.747 225.899L177.301 230.234L173.258 228.159C173.295 228.085 173.48 227.307 174.482 227.418Z" fill="#656C70"/>
<path d="M159.869 227.233C158.867 227.307 157.94 227.603 157.94 227.603L157.31 224.936C157.273 224.824 157.235 224.75 157.198 224.639L156.308 222.453C156.42 222.194 157.198 220.601 156.827 218.859C156.457 217.155 156.123 215.117 155.492 214.302C156.345 213.932 156.976 213.043 156.976 212.042C156.976 210.671 155.863 209.597 154.491 209.597C153.119 209.597 152.043 210.708 152.043 212.079C152.043 213.006 152.562 213.821 153.341 214.228C153.193 214.376 153.082 214.599 153.007 214.858C152.636 216.044 151.969 219.86 152.117 220.823C152.228 221.49 152.451 221.972 152.785 222.305C152.785 222.824 152.711 225.195 152.711 225.195L150.893 228.492L152.599 230.197H154.491C154.491 230.197 154.676 229.641 154.305 229.27C154.12 229.085 153.378 228.715 153.378 228.715L152.822 228.159L154.75 225.714C154.788 225.603 154.825 225.528 154.825 225.417L154.899 224.676C155.27 225.232 155.604 225.714 155.604 225.714L157.05 230.049L161.093 227.974C161.056 227.863 160.907 227.122 159.869 227.233Z" fill="#656C70"/>
<path d="M170.921 256.836C170.847 256.577 170.736 256.392 170.588 256.243C171.366 255.836 171.849 255.021 171.849 254.094C171.849 252.724 170.736 251.649 169.401 251.649C168.065 251.649 166.953 252.761 166.953 254.094C166.953 255.095 167.546 255.984 168.436 256.355C167.806 257.17 167.472 259.207 167.138 260.912C166.767 262.838 167.695 264.543 167.695 264.543L169.03 270.137C169.03 270.137 168.103 270.322 167.138 270.693C166.211 271.063 166.396 271.841 166.396 271.841H170.921C170.921 271.841 171.663 263.802 171.849 262.838C172.071 261.838 171.292 258.022 170.921 256.836Z" fill="#656C70"/>
<path d="M144.403 256.836C144.477 256.577 144.588 256.392 144.736 256.243C143.958 255.836 143.475 255.021 143.475 254.094C143.475 252.724 144.588 251.649 145.923 251.649C147.258 251.649 148.371 252.761 148.371 254.094C148.371 255.095 147.778 255.984 146.888 256.355C147.518 257.17 147.852 259.207 148.186 260.912C148.557 262.838 147.629 264.543 147.629 264.543L146.294 270.137C146.294 270.137 147.221 270.322 148.186 270.693C149.15 271.063 148.927 271.841 148.927 271.841H144.403C144.403 271.841 143.661 263.802 143.475 262.838C143.253 261.838 143.995 258.022 144.403 256.836Z" fill="#656C70"/>
<path d="M234.306 255.799C234.381 255.539 234.492 255.354 234.64 255.206C233.861 254.798 233.379 253.983 233.379 253.057C233.379 251.686 234.492 250.612 235.827 250.612C237.199 250.612 238.275 251.723 238.275 253.057C238.275 254.057 237.681 254.946 236.791 255.317C237.422 256.132 237.756 258.17 238.089 259.874C238.46 261.801 237.533 263.505 237.533 263.505L236.198 269.099C236.198 269.099 237.125 269.285 238.089 269.655C239.054 270.026 238.831 270.804 238.831 270.804H234.306C234.306 270.804 233.565 262.764 233.379 261.801C233.157 260.8 233.898 256.984 234.306 255.799Z" fill="#656C70"/>
<path d="M158.719 263.098C159.09 262.542 159.09 260.837 159.016 259.985C158.942 259.133 158.534 257.095 157.977 256.688C157.718 256.54 157.458 256.391 157.235 256.317C157.235 256.132 157.198 256.021 157.198 256.021C157.977 255.613 158.459 254.798 158.459 253.872C158.459 252.501 157.347 251.427 156.011 251.427C154.639 251.427 153.564 252.538 153.564 253.872C153.564 254.798 154.083 255.613 154.825 256.021C154.825 256.021 154.788 256.132 154.788 256.317C154.565 256.391 154.268 256.54 154.046 256.688C153.489 257.058 153.081 259.096 153.007 259.985C152.933 260.837 152.933 262.542 153.304 263.098C153.675 263.653 154.342 264.32 154.342 264.32L154.936 270.73C153.972 271.026 154.12 271.582 154.12 271.582H155.01H157.05H157.94C157.94 271.582 158.088 270.915 157.124 270.656L157.718 264.32C157.681 264.32 158.348 263.69 158.719 263.098Z" fill="#656C70"/>
<path d="M192.136 268.877C191.135 268.951 190.208 269.248 190.208 269.248L189.577 266.58C189.54 266.469 189.503 266.395 189.466 266.284L188.576 264.098C188.687 263.838 189.466 262.245 189.095 260.504C188.724 258.8 188.39 256.762 187.76 255.947C188.613 255.576 189.243 254.687 189.243 253.687C189.243 252.316 188.131 251.241 186.758 251.241C185.386 251.241 184.31 252.353 184.31 253.724C184.31 254.65 184.83 255.465 185.609 255.873C185.46 256.021 185.349 256.243 185.275 256.503C184.904 257.688 184.236 261.504 184.385 262.468C184.496 263.134 184.718 263.616 185.052 263.95C185.052 264.468 184.978 266.839 184.978 266.839L183.161 270.137L184.867 271.841H186.758C186.758 271.841 186.944 271.285 186.573 270.915C186.387 270.73 185.646 270.359 185.646 270.359L185.089 269.803L187.018 267.358C187.055 267.247 187.092 267.173 187.092 267.062L187.166 266.321C187.537 266.877 187.871 267.358 187.871 267.358L189.317 271.693L193.36 269.618C193.323 269.544 193.138 268.803 192.136 268.877Z" fill="#656C70"/>
<path d="M219.174 268.062C220.175 268.136 221.103 268.432 221.103 268.432L221.733 265.765C221.77 265.654 221.807 265.579 221.844 265.468L222.735 263.282C222.623 263.023 221.844 261.43 222.215 259.689C222.586 257.984 222.92 255.946 223.55 255.131C222.697 254.761 222.067 253.872 222.067 252.871C222.067 251.5 223.18 250.426 224.552 250.426C225.924 250.426 227 251.538 227 252.908C227 253.835 226.48 254.65 225.702 255.057C225.85 255.205 225.961 255.428 226.035 255.687C226.406 256.873 227.074 260.689 226.926 261.652C226.814 262.319 226.592 262.801 226.258 263.134C226.258 263.653 226.332 266.024 226.332 266.024L228.149 269.322L226.443 271.026H224.552C224.552 271.026 224.366 270.47 224.737 270.1C224.923 269.914 225.665 269.544 225.665 269.544L226.221 268.988L224.292 266.543C224.255 266.432 224.218 266.358 224.218 266.246L224.144 265.505C223.773 266.061 223.439 266.543 223.439 266.543L221.993 270.878L217.95 268.803C217.987 268.729 218.135 267.988 219.174 268.062Z" fill="#656C70"/>
<path d="M162.688 299.629C162.762 299.37 162.873 299.185 163.021 299.037C162.243 298.629 161.76 297.814 161.76 296.888C161.76 295.517 162.873 294.442 164.208 294.442C165.543 294.442 166.656 295.554 166.656 296.888C166.656 297.888 166.063 298.777 165.173 299.148C165.803 299.963 166.137 302.001 166.471 303.705C166.841 305.631 165.914 307.336 165.914 307.336L164.579 312.93C164.579 312.93 165.506 313.116 166.471 313.486C167.398 313.857 167.212 314.635 167.212 314.635H162.688C162.688 314.635 161.946 306.595 161.76 305.631C161.575 304.631 162.317 300.815 162.688 299.629Z" fill="#656C70"/>
<path d="M182.271 313.449C181.343 313.078 180.379 312.893 180.379 312.893L180.861 308.743C180.861 308.743 179.118 307.965 178.376 308.04C178.339 307.78 178.302 307.521 178.265 307.261C177.931 305.52 177.597 303.519 176.967 302.704C177.857 302.334 178.45 301.445 178.45 300.444C178.45 299.073 177.338 297.999 176.003 297.999C174.667 297.999 173.555 299.111 173.555 300.444C173.555 301.371 174.074 302.186 174.816 302.593C174.667 302.741 174.556 302.964 174.482 303.186C174.111 304.372 173.295 308.188 173.555 309.151C174.074 311.374 178.228 310.781 178.228 310.781C178.228 310.781 178.228 310.744 178.265 310.633C178.376 312.411 178.488 314.56 178.488 314.56H183.012C183.012 314.597 183.198 313.856 182.271 313.449Z" fill="#656C70"/>
<path d="M175.595 314.597C177.889 314.597 179.749 312.739 179.749 310.447C179.749 308.156 177.889 306.298 175.595 306.298C173.3 306.298 171.441 308.156 171.441 310.447C171.441 312.739 173.3 314.597 175.595 314.597Z" fill="#656C70"/>
<path d="M147.852 313.411C148.779 313.04 149.743 312.855 149.743 312.855L149.261 308.706C149.261 308.706 151.005 307.928 151.746 308.002C151.783 307.742 151.82 307.483 151.858 307.224C152.191 305.482 152.525 303.482 153.156 302.667C152.266 302.296 151.672 301.407 151.672 300.406C151.672 299.036 152.785 297.961 154.12 297.961C155.455 297.961 156.568 299.073 156.568 300.406C156.568 301.333 156.049 302.148 155.307 302.555C155.455 302.704 155.566 302.926 155.641 303.148C156.012 304.334 156.827 308.15 156.568 309.113C156.049 311.336 151.895 310.743 151.895 310.743C151.895 310.743 151.895 310.706 151.858 310.595C151.746 312.374 151.635 314.522 151.635 314.522H147.11C147.073 314.559 146.888 313.819 147.852 313.411Z" fill="#656C70"/>
<path d="M252.999 311.893C251.998 311.967 251.071 312.263 251.071 312.263L250.44 309.596C250.403 309.485 250.366 309.411 250.329 309.299L249.439 307.113C249.55 306.854 250.329 305.261 249.958 303.52C249.587 301.815 249.253 299.778 248.623 298.962C249.476 298.592 250.106 297.703 250.106 296.702C250.106 295.332 248.994 294.257 247.621 294.257C246.249 294.257 245.174 295.369 245.174 296.739C245.174 297.666 245.693 298.481 246.472 298.888C246.323 299.037 246.212 299.259 246.138 299.518C245.767 300.704 245.099 304.52 245.248 305.483C245.359 306.15 245.581 306.632 245.915 306.965C245.915 307.484 245.841 309.855 245.841 309.855L244.024 313.153L245.73 314.857H247.621C247.621 314.857 247.807 314.301 247.436 313.931C247.25 313.745 246.509 313.375 246.509 313.375L245.952 312.819L247.881 310.374C247.918 310.263 247.955 310.189 247.955 310.077L248.029 309.336C248.4 309.892 248.734 310.374 248.734 310.374L250.18 314.709L254.223 312.634C254.186 312.56 254.001 311.782 252.999 311.893Z" fill="#656C70"/>
<path d="M267.575 311.707C268.577 311.781 269.504 312.078 269.504 312.078L270.134 309.41C270.171 309.299 270.209 309.225 270.246 309.114L271.136 306.928C271.025 306.669 270.246 305.075 270.617 303.334C270.987 301.63 271.321 299.592 271.952 298.777C271.099 298.406 270.468 297.517 270.468 296.517C270.468 295.146 271.581 294.072 272.953 294.072C274.325 294.072 275.401 295.183 275.401 296.554C275.401 297.48 274.882 298.295 274.103 298.703C274.251 298.851 274.363 299.073 274.437 299.333C274.808 300.518 275.475 304.334 275.327 305.298C275.216 305.965 274.993 306.446 274.659 306.78C274.659 307.298 274.733 309.67 274.733 309.67L276.551 312.967L274.845 314.671H272.953C272.953 314.671 272.768 314.116 273.139 313.745C273.324 313.56 274.066 313.189 274.066 313.189L274.622 312.634L272.694 310.188C272.656 310.077 272.619 310.003 272.619 309.892L272.545 309.151C272.174 309.707 271.84 310.188 271.84 310.188L270.394 314.523L266.351 312.448C266.388 312.374 266.574 311.596 267.575 311.707Z" fill="#656C70"/>
<path d="M147.963 341.791C147.889 341.532 147.778 341.346 147.629 341.198C148.408 340.791 148.89 339.976 148.89 339.049C148.89 337.678 147.778 336.604 146.443 336.604C145.107 336.604 143.995 337.716 143.995 339.049C143.995 340.05 144.588 340.939 145.478 341.309C144.848 342.124 144.514 344.162 144.18 345.867C143.809 347.793 144.736 349.497 144.736 349.497L146.072 355.092C146.072 355.092 145.144 355.277 144.18 355.648C143.253 356.018 143.438 356.796 143.438 356.796H147.963C147.963 356.796 148.705 348.756 148.89 347.793C149.076 346.793 148.334 342.94 147.963 341.791Z" fill="#656C70"/>
<path d="M252.146 341.977C252.072 341.718 251.961 341.533 251.812 341.384C252.591 340.977 253.073 340.162 253.073 339.236C253.073 337.865 251.961 336.79 250.626 336.79C249.253 336.79 248.178 337.902 248.178 339.236C248.178 340.236 248.771 341.125 249.661 341.496C249.031 342.311 248.697 344.348 248.363 346.053C247.992 347.979 248.919 349.684 248.919 349.684L250.255 355.278C250.255 355.278 249.327 355.464 248.363 355.834C247.436 356.205 247.621 356.983 247.621 356.983H252.146C252.146 356.983 252.888 348.943 253.073 347.979C253.259 346.979 252.517 343.126 252.146 341.977Z" fill="#656C70"/>
<path d="M157.458 341.792C157.532 341.532 157.643 341.347 157.792 341.199C157.013 340.791 156.531 339.976 156.531 339.05C156.531 337.679 157.643 336.605 158.979 336.605C160.314 336.605 161.427 337.716 161.427 339.05C161.427 340.05 160.833 340.94 159.943 341.31C160.573 342.125 160.907 344.163 161.241 345.867C161.612 347.794 160.685 349.498 160.685 349.498L159.35 355.093C159.35 355.093 160.277 355.278 161.241 355.648C162.168 356.019 161.983 356.797 161.983 356.797H157.458C157.458 356.797 156.716 348.757 156.531 347.794C156.345 346.793 157.087 342.94 157.458 341.792Z" fill="#656C70"/>
<path d="M174.741 354.018C173.74 354.092 172.813 354.389 172.813 354.389L172.182 351.721C172.145 351.61 172.108 351.536 172.071 351.425L171.181 349.239C171.292 348.98 172.071 347.386 171.7 345.645C171.329 343.941 170.995 341.903 170.365 341.088C171.218 340.717 171.849 339.828 171.849 338.828C171.849 337.457 170.736 336.383 169.364 336.383C167.991 336.383 166.916 337.494 166.916 338.865C166.916 339.791 167.435 340.606 168.214 341.014C168.065 341.162 167.954 341.384 167.88 341.644C167.509 342.829 166.842 346.645 166.99 347.609C167.101 348.276 167.324 348.757 167.657 349.091C167.657 349.609 167.583 351.981 167.583 351.981L165.766 355.278L167.472 356.982H169.364C169.364 356.982 169.549 356.427 169.178 356.056C168.993 355.871 168.251 355.5 168.251 355.5L167.695 354.945L169.623 352.499C169.66 352.388 169.697 352.314 169.697 352.203L169.772 351.462C170.142 352.018 170.476 352.499 170.476 352.499L171.923 356.834L175.965 354.759C175.928 354.685 175.78 353.944 174.741 354.018Z" fill="#656C70"/>
<path d="M219.508 354.018C218.506 354.092 217.579 354.389 217.579 354.389L216.949 351.721C216.912 351.61 216.875 351.536 216.837 351.425L215.947 349.239C216.059 348.98 216.837 347.386 216.467 345.645C216.096 343.941 215.762 341.903 215.131 341.088C215.984 340.717 216.615 339.828 216.615 338.828C216.615 337.457 215.502 336.383 214.13 336.383C212.758 336.383 211.682 337.494 211.682 338.865C211.682 339.791 212.201 340.606 212.98 341.014C212.832 341.162 212.721 341.384 212.646 341.644C212.276 342.829 211.608 346.645 211.756 347.609C211.868 348.276 212.09 348.757 212.424 349.091C212.424 349.609 212.35 351.981 212.35 351.981L210.532 355.278L212.238 356.982H214.13C214.13 356.982 214.315 356.427 213.945 356.056C213.759 355.871 213.017 355.5 213.017 355.5L212.461 354.945L214.39 352.499C214.427 352.388 214.464 352.314 214.464 352.203L214.538 351.462C214.909 352.018 215.243 352.499 215.243 352.499L216.689 356.834L220.732 354.759C220.695 354.685 220.509 353.944 219.508 354.018Z" fill="#656C70"/>
<path d="M271.618 354.018C270.617 354.092 269.689 354.389 269.689 354.389L269.059 351.721C269.022 351.61 268.985 351.536 268.948 351.425L268.057 349.239C268.169 348.98 268.948 347.386 268.577 345.645C268.206 343.941 267.872 341.903 267.241 341.088C268.094 340.717 268.725 339.828 268.725 338.828C268.725 337.457 267.612 336.383 266.24 336.383C264.868 336.383 263.792 337.494 263.792 338.865C263.792 339.791 264.311 340.606 265.09 341.014C264.942 341.162 264.831 341.384 264.756 341.644C264.386 342.829 263.718 346.645 263.866 347.609C263.978 348.276 264.2 348.757 264.534 349.091C264.534 349.609 264.46 351.981 264.46 351.981L262.642 355.278L264.348 356.982H266.24C266.24 356.982 266.425 356.427 266.055 356.056C265.869 355.871 265.127 355.5 265.127 355.5L264.571 354.945L266.5 352.499C266.537 352.388 266.574 352.314 266.574 352.203L266.648 351.462C267.019 352.018 267.353 352.499 267.353 352.499L268.799 356.834L272.842 354.759C272.805 354.685 272.656 353.944 271.618 354.018Z" fill="#656C70"/>
<path d="M229.077 354.018C230.078 354.092 231.005 354.389 231.005 354.389L231.636 351.721C231.673 351.61 231.71 351.536 231.747 351.425L232.637 349.239C232.526 348.98 231.747 347.386 232.118 345.645C232.489 343.941 232.823 341.903 233.453 341.088C232.6 340.717 231.97 339.828 231.97 338.828C231.97 337.457 233.082 336.383 234.455 336.383C235.827 336.383 236.903 337.494 236.903 338.865C236.903 339.791 236.383 340.606 235.605 341.014C235.753 341.162 235.864 341.384 235.938 341.644C236.309 342.829 236.977 346.645 236.828 347.609C236.717 348.276 236.495 348.757 236.161 349.091C236.161 349.609 236.235 351.981 236.235 351.981L238.052 355.278L236.346 356.982H234.455C234.455 356.982 234.269 356.427 234.64 356.056C234.826 355.871 235.567 355.5 235.567 355.5L236.124 354.945L234.195 352.499C234.158 352.388 234.121 352.314 234.121 352.203L234.047 351.462C233.676 352.018 233.342 352.499 233.342 352.499L231.896 356.834L227.853 354.759C227.89 354.685 228.075 353.944 229.077 354.018Z" fill="#656C70"/>
<path d="M194.362 354.018C195.363 354.092 196.29 354.389 196.29 354.389L196.921 351.721C196.958 351.61 196.995 351.536 197.032 351.425L197.922 349.239C197.811 348.98 197.032 347.386 197.403 345.645C197.774 343.941 198.108 341.903 198.738 341.088C197.885 340.717 197.255 339.828 197.255 338.828C197.255 337.457 198.367 336.383 199.739 336.383C201.112 336.383 202.187 337.494 202.187 338.865C202.187 339.791 201.668 340.606 200.889 341.014C201.038 341.162 201.149 341.384 201.223 341.644C201.594 342.829 202.262 346.645 202.113 347.609C202.002 348.276 201.779 348.757 201.446 349.091C201.446 349.609 201.52 351.981 201.52 351.981L203.337 355.278L201.631 356.982H199.739C199.739 356.982 199.554 356.427 199.925 356.056C200.11 355.871 200.852 355.5 200.852 355.5L201.409 354.945L199.48 352.499C199.443 352.388 199.406 352.314 199.406 352.203L199.332 351.462C198.961 352.018 198.627 352.499 198.627 352.499L197.18 356.834L193.138 354.759C193.175 354.685 193.323 353.944 194.362 354.018Z" fill="#656C70"/>
<path d="M252.443 383.584C252.369 383.324 252.258 383.139 252.109 382.991C252.888 382.583 253.37 381.768 253.37 380.842C253.37 379.471 252.258 378.397 250.922 378.397C249.55 378.397 248.474 379.508 248.474 380.842C248.474 381.842 249.068 382.732 249.958 383.102C249.327 383.917 248.994 385.955 248.66 387.659C248.289 389.586 249.216 391.29 249.216 391.29L250.551 396.885C250.551 396.885 249.624 397.07 248.66 397.44C247.696 397.811 247.918 398.589 247.918 398.589H252.443C252.443 398.589 253.185 390.549 253.37 389.586C253.556 388.585 252.814 384.769 252.443 383.584Z" fill="#656C70"/>
<path d="M229.003 383.584C229.077 383.324 229.188 383.139 229.336 382.991C228.558 382.583 228.075 381.768 228.075 380.842C228.075 379.471 229.188 378.397 230.523 378.397C231.896 378.397 232.971 379.508 232.971 380.842C232.971 381.842 232.378 382.732 231.488 383.102C232.118 383.917 232.452 385.955 232.786 387.659C233.157 389.586 232.229 391.29 232.229 391.29L230.894 396.885C230.894 396.885 231.821 397.07 232.786 397.44C233.75 397.811 233.528 398.589 233.528 398.589H229.003C229.003 398.589 228.261 390.549 228.075 389.586C227.853 388.585 228.632 384.769 229.003 383.584Z" fill="#656C70"/>
<path d="M243.838 390.067C244.209 389.512 244.209 387.807 244.135 386.955C244.061 386.103 243.653 384.065 243.097 383.658C242.837 383.51 242.577 383.361 242.355 383.287C242.355 383.102 242.318 382.991 242.318 382.991C243.097 382.583 243.579 381.768 243.579 380.842C243.579 379.471 242.466 378.397 241.131 378.397C239.759 378.397 238.683 379.508 238.683 380.842C238.683 381.768 239.202 382.583 239.944 382.991C239.944 382.991 239.907 383.102 239.907 383.287C239.684 383.361 239.388 383.51 239.165 383.658C238.609 384.028 238.201 386.066 238.127 386.955C238.052 387.807 238.052 389.512 238.423 390.067C238.794 390.623 239.462 391.29 239.462 391.29L240.055 397.7C239.091 397.996 239.239 398.552 239.239 398.552H240.129H242.169H243.059C243.059 398.552 243.208 397.885 242.243 397.626L242.837 391.29C242.8 391.29 243.467 390.623 243.838 390.067Z" fill="#656C70"/>
<path d="M273.621 390.289C273.992 389.734 273.992 388.029 273.917 387.177C273.843 386.325 273.435 384.287 272.879 383.88C272.619 383.732 272.36 383.583 272.137 383.509C272.137 383.324 272.1 383.213 272.1 383.213C272.879 382.805 273.361 381.99 273.361 381.064C273.361 379.693 272.248 378.619 270.913 378.619C269.541 378.619 268.465 379.73 268.465 381.064C268.465 381.99 268.985 382.805 269.726 383.213C269.726 383.213 269.689 383.324 269.689 383.509C269.467 383.583 269.17 383.732 268.948 383.88C268.391 384.25 267.983 386.288 267.909 387.177C267.835 388.029 267.835 389.734 268.206 390.289C268.577 390.845 269.244 391.512 269.244 391.512L269.838 397.922C268.873 398.218 269.022 398.774 269.022 398.774H269.912H271.952H272.842C272.842 398.774 272.99 398.107 272.026 397.848L272.619 391.512C272.582 391.512 273.25 390.882 273.621 390.289Z" fill="#656C70"/>
<path d="M180.676 397.403C179.749 397.033 178.784 396.848 178.784 396.848L179.266 392.698C179.266 392.698 177.523 391.92 176.781 391.994C176.744 391.735 176.707 391.475 176.67 391.216C176.336 389.475 176.003 387.474 175.372 386.659C176.262 386.288 176.856 385.399 176.856 384.399C176.856 383.028 175.743 381.953 174.408 381.953C173.072 381.953 171.96 383.065 171.96 384.399C171.96 385.325 172.479 386.14 173.221 386.548C173.072 386.696 172.961 386.918 172.887 387.14C172.516 388.326 171.7 392.142 171.96 393.105C172.479 395.328 176.633 394.736 176.633 394.736C176.633 394.736 176.633 394.699 176.67 394.587C176.781 396.366 176.893 398.515 176.893 398.515H181.418C181.418 398.552 181.603 397.811 180.676 397.403Z" fill="#656C70"/>
<path d="M174 398.551C176.294 398.551 178.154 396.694 178.154 394.402C178.154 392.11 176.294 390.252 174 390.252C171.706 390.252 169.846 392.11 169.846 394.402C169.846 396.694 171.706 398.551 174 398.551Z" fill="#656C70"/>
<path d="M192.248 397.403C191.32 397.033 190.356 396.848 190.356 396.848L190.838 392.698C190.838 392.698 189.095 391.92 188.353 391.994C188.316 391.735 188.279 391.475 188.242 391.216C187.908 389.475 187.574 387.474 186.944 386.659C187.834 386.288 188.427 385.399 188.427 384.399C188.427 383.028 187.315 381.953 185.98 381.953C184.644 381.953 183.532 383.065 183.532 384.399C183.532 385.325 184.051 386.14 184.793 386.548C184.644 386.696 184.533 386.918 184.459 387.14C184.088 388.326 183.272 392.142 183.532 393.105C184.051 395.328 188.205 394.736 188.205 394.736C188.205 394.736 188.205 394.699 188.242 394.587C188.353 396.366 188.464 398.515 188.464 398.515H192.989C192.989 398.552 193.175 397.811 192.248 397.403Z" fill="#656C70"/>
<path d="M149.187 397.366C150.114 396.996 151.079 396.81 151.079 396.81L150.597 392.661C150.597 392.661 152.34 391.883 153.082 391.957C153.119 391.698 153.156 391.438 153.193 391.179C153.527 389.438 153.86 387.437 154.491 386.622C153.601 386.251 153.007 385.362 153.007 384.362C153.007 382.991 154.12 381.917 155.455 381.917C156.79 381.917 157.903 383.028 157.903 384.362C157.903 385.288 157.384 386.103 156.642 386.511C156.79 386.659 156.902 386.881 156.976 387.103C157.347 388.289 158.163 392.105 157.903 393.068C157.384 395.291 153.23 394.699 153.23 394.699C153.23 394.699 153.23 394.662 153.193 394.55C153.082 396.329 152.97 398.478 152.97 398.478H148.445C148.445 398.515 148.26 397.774 149.187 397.366Z" fill="#656C70"/>
<path d="M167.027 390.067C167.398 389.512 167.398 387.807 167.324 386.955C167.25 386.103 166.842 384.065 166.285 383.658C166.026 383.51 165.766 383.361 165.543 383.287C165.543 383.102 165.506 382.991 165.506 382.991C166.285 382.583 166.767 381.768 166.767 380.842C166.767 379.471 165.655 378.397 164.319 378.397C162.947 378.397 161.872 379.508 161.872 380.842C161.872 381.768 162.391 382.583 163.133 382.991C163.133 382.991 163.096 383.102 163.096 383.287C162.873 383.361 162.576 383.51 162.354 383.658C161.797 384.028 161.389 386.066 161.315 386.955C161.241 387.807 161.241 389.512 161.612 390.067C161.983 390.623 162.65 391.29 162.65 391.29L163.244 397.7C162.28 397.996 162.428 398.552 162.428 398.552H163.318H165.358H166.248C166.248 398.552 166.396 397.885 165.432 397.626L166.026 391.29C165.988 391.29 166.619 390.623 167.027 390.067Z" fill="#656C70"/>
<path opacity="0.5" d="M209.976 339.938C230.255 339.938 246.694 323.516 246.694 303.258C246.694 283.001 230.255 266.579 209.976 266.579C189.697 266.579 173.258 283.001 173.258 303.258C173.258 323.516 189.697 339.938 209.976 339.938Z" fill="white"/>
<path opacity="0.5" d="M209.976 327.23C223.229 327.23 233.973 316.498 233.973 303.259C233.973 290.02 223.229 279.287 209.976 279.287C196.723 279.287 185.979 290.02 185.979 303.259C185.979 316.498 196.723 327.23 209.976 327.23Z" fill="white"/>
<path d="M213.314 305.259C213.759 304.555 213.759 302.48 213.685 301.443C213.574 300.368 213.092 297.886 212.387 297.441C212.09 297.256 211.756 297.108 211.46 296.96C211.46 296.737 211.423 296.626 211.423 296.589C212.35 296.07 212.98 295.107 212.98 293.959C212.98 292.291 211.645 290.958 209.976 290.958C208.307 290.958 206.972 292.291 206.972 293.959C206.972 295.107 207.602 296.07 208.53 296.589C208.53 296.589 208.492 296.737 208.492 296.96C208.196 297.071 207.862 297.219 207.565 297.441C206.861 297.886 206.378 300.405 206.267 301.443C206.156 302.517 206.156 304.592 206.638 305.259C207.083 305.963 207.899 306.741 207.899 306.741L208.604 314.595C207.417 314.966 207.602 315.67 207.602 315.67H208.715H211.237H212.313C212.313 315.67 212.461 314.855 211.348 314.521L212.053 306.778C212.053 306.741 212.832 305.926 213.314 305.259Z" fill="#3877F6"/>
</g>
<defs>
<clipPath id="clip0">
<rect width="361.729" height="418.368" fill="white" transform="translate(20.8963 43.2427)"/>
</clipPath>
</defs>
</svg>
