<svg width="403" height="419" viewBox="0 0 403 419" fill="none" xmlns="http://www.w3.org/2000/svg">
<ellipse cx="201.5" cy="209" rx="201.5" ry="201.302" fill="#CDE4FD"/>
<g clip-path="url(#clip0)">
<path d="M144.959 303.126H64.105V375.707H144.959V303.126Z" fill="#33393C"/>
<path d="M164.505 95.4243H82.7607V306.313H164.505V95.4243Z" fill="#33393C"/>
<path d="M164.282 71.823H113.693V103.241H164.282V71.823Z" fill="#33393C"/>
<path d="M344.09 195.126H270.505V375.671H344.09V195.126Z" fill="#33393C"/>
<path d="M346.649 203.054H267.946V209.834H346.649V203.054Z" fill="#33393C"/>
<path d="M346.649 191.754H267.946V198.534H346.649V191.754Z" fill="#33393C"/>
<path d="M113.693 243.698H33.0986V375.67H113.693V243.698Z" fill="#3877F6"/>
<path d="M379.399 278.857H304.182V375.706H379.399V278.857Z" fill="#3877F6"/>
<path d="M73.4143 229.877H41.9257V247.476H73.4143V229.877Z" fill="#3877F6"/>
<path d="M77.3828 223.542H38.2539V229.878H77.3828V223.542Z" fill="#3877F6"/>
<path d="M258.34 148.812H124.115V237.769H258.34V148.812Z" fill="#3877F6"/>
<path d="M247.881 138.735H134.389V149.998H247.881V138.735Z" fill="#3877F6"/>
<path d="M294.316 236.288H124.115V376.262H294.316V236.288Z" fill="#3877F6"/>
<path d="M46.966 382.1C43.1461 380.56 44.2855 375.669 48.4041 375.669H373.266C376.155 375.669 377.953 378.57 376.334 380.962C371.201 388.548 359.281 401.604 338.044 401.604C317.831 401.604 300.102 395.157 277.997 395.195C233.898 395.269 202.224 418.536 167.027 418.573C131.014 418.647 127.638 391.749 96.0386 392.305C77.2293 392.651 58.9379 386.927 46.966 382.1Z" fill="#FCD285"/>
<path d="M285.563 328.47H134.389V363.778H285.563V328.47Z" fill="white"/>
<path d="M285.563 285.528H134.389V320.837H285.563V285.528Z" fill="white"/>
<path d="M285.563 242.624H134.389V277.932H285.563V242.624Z" fill="#FCD285"/>
<path d="M248.066 199.682H134.389V234.991H248.066V199.682Z" fill="white"/>
<path d="M248.066 156.779H134.389V192.087H248.066V156.779Z" fill="white"/>
<path d="M193.583 375.669C193.583 375.669 180.119 384.265 172.664 391.897C167.806 396.862 168.881 409.718 191.691 410.014C210.458 410.237 287.047 410.089 318.758 410.126C358.258 410.163 342.161 401.53 332.11 401.048C322.689 401.122 314.79 395.861 304.961 395.491C283.635 394.676 217.542 394.12 211.534 394.009C202.447 393.824 205.154 390.415 211.793 384.932C219.174 378.818 223.003 375.669 223.003 375.669H193.583Z" fill="#33393C"/>
<path d="M286.083 90.088C286.083 90.088 252.257 90.2733 242.688 90.2733C233.12 90.2733 229.448 83.7525 231.302 78.3802C235.382 66.376 249.142 71.7853 249.142 71.7853C249.142 71.7853 243.171 52.4082 264.645 53.4085C276.625 53.9643 273.954 64.9311 273.954 64.9311C273.954 64.9311 280.779 61.3002 287.344 65.4868C293.983 69.7105 289.198 75.4162 289.198 75.4162C289.198 75.4162 295.837 74.3418 298.062 80.455C299.657 84.8269 296.171 90.088 286.083 90.088Z" fill="white"/>
<path d="M287.492 174.489C287.492 174.489 351.471 174.489 364.452 174.489C377.433 174.489 383.627 169.969 382.44 162.226C380.919 151.926 368.346 153.593 368.346 153.593C368.346 153.593 380.066 144.96 370.534 136.105C362.152 128.288 353.51 136.402 353.51 136.402C353.51 136.402 346.909 115.691 329.032 119.359C307.26 123.805 309.968 146.516 309.968 146.516C309.968 146.516 301.92 139.514 293.018 145.331C284.006 151.185 287.492 157.15 287.492 157.15C287.492 157.15 278.405 153.667 276.477 160.373C274.733 166.523 273.769 174.489 287.492 174.489Z" fill="white"/>
<path d="M180.861 62.4123C180.861 62.4123 109.316 62.4123 94.8147 62.4123C80.3129 62.4123 73.3773 57.3735 74.6754 48.7038C76.3815 37.1813 90.4382 39.0708 90.4382 39.0708C90.4382 39.0708 77.3458 29.4378 87.9903 19.5084C97.3738 10.7646 107.054 19.8048 107.054 19.8048C107.054 19.8048 114.361 -3.38846 134.389 0.72409C158.756 5.72583 155.715 31.1051 155.715 31.1051C155.715 31.1051 164.727 23.2875 174.667 29.7713C184.756 36.3291 180.861 42.9981 180.861 42.9981C180.861 42.9981 191.061 39.1078 193.175 46.5919C195.14 53.5203 196.179 62.4123 180.861 62.4123Z" fill="white"/>
<path d="M91.5138 153.333C91.5138 153.333 48.3051 153.555 36.0657 153.555C23.8264 153.555 19.1531 145.256 21.5268 138.364C26.7564 123.063 44.3366 129.954 44.3366 129.954C44.3366 129.954 36.6962 105.205 64.1421 106.464C79.4227 107.168 76.0476 121.173 76.0476 121.173C76.0476 121.173 84.7636 116.542 93.1828 121.914C101.676 127.324 95.5565 134.585 95.5565 134.585C95.5565 134.585 104.05 133.215 106.869 141.032C108.871 146.59 104.421 153.333 91.5138 153.333Z" fill="white"/>
<path d="M343.025 354.805C343.025 354.805 341.763 379.272 343.025 385.127C344.288 390.982 336.569 393.41 337.045 388.221C337.522 383.033 339.356 358.542 339.356 358.542L343.025 354.805Z" fill="#33393C"/>
<path d="M334.543 371.704C338.475 369.824 344.741 368.776 350.602 371.585C357.75 375.012 369.925 374.251 360.728 365.92C351.531 357.59 349.077 351.997 351.34 352.759C356.749 354.591 358.917 357.542 359.965 355.4C361.014 353.258 357.916 348.498 353.866 343.976C349.816 339.478 342.215 332.29 347.481 333.313C352.746 334.337 357.821 339.573 355.248 333.885C353.151 329.267 342.978 323.555 346.456 322.96C349.935 322.365 352.031 320.866 350.65 318.581C348.172 314.463 346.599 313.892 343.931 310.013C341.262 306.109 341.381 301.659 339.428 303.158C336.449 305.467 334.472 310.441 334.114 314.297C333.328 322.698 321.606 329.434 325.085 329.934C328.539 330.434 330.159 328.506 332.756 329.125C338.403 330.457 316.055 347.832 321.797 348.308C327.443 348.76 328.873 343.786 330.922 344.5C337.784 346.904 314.816 361.351 320.105 362.16C324.203 362.802 327.801 357.971 331.78 359.851C336.902 362.255 310.599 375.655 317.174 377.321C322.654 378.701 328.873 374.441 334.543 371.704Z" fill="#33393C"/>
<path d="M81.9447 329.025C81.9447 329.025 79.979 367.112 81.9447 376.227C83.9104 385.341 71.8936 389.12 72.6354 381.043C73.3772 372.966 76.233 334.842 76.233 334.842L81.9447 329.025Z" fill="#33393C"/>
<path d="M70.1876 370.298C75.2687 367.853 83.3912 366.482 90.9945 370.15C100.267 374.596 116.03 373.595 104.124 362.814C92.2184 352.032 89.0288 344.771 91.9588 345.771C98.9686 348.142 101.787 351.995 103.16 349.18C104.532 346.401 100.489 340.213 95.2597 334.397C89.9931 328.543 80.1645 319.243 86.9889 320.577C93.8132 321.911 100.378 328.691 97.04 321.318C94.3325 315.353 81.1288 307.943 85.6166 307.165C90.1043 306.387 92.8489 304.46 91.0687 301.496C87.8419 296.161 85.802 295.42 82.3898 290.381C78.9406 285.343 79.0889 279.563 76.5669 281.489C72.7096 284.49 70.1505 290.937 69.6683 295.902C68.6298 306.794 53.4604 315.501 57.9853 316.168C62.4731 316.798 64.55 314.316 67.9251 315.131C75.2317 316.872 46.2652 339.398 53.7201 339.991C61.0266 340.584 62.881 334.137 65.5514 335.064C74.4157 338.176 44.7074 356.886 51.5318 357.96C56.8355 358.813 61.5087 352.551 66.6641 354.959C73.303 358.072 39.2183 375.448 47.7487 377.597C54.7956 379.338 62.8439 373.818 70.1876 370.298Z" fill="#33393C"/>
<path d="M210.236 172.155C210.162 171.895 210.05 171.71 209.902 171.562C210.681 171.154 211.163 170.339 211.163 169.413C211.163 168.042 210.05 166.968 208.715 166.968C207.38 166.968 206.267 168.079 206.267 169.413C206.267 170.413 206.861 171.303 207.751 171.673C207.12 172.488 206.786 174.526 206.453 176.23C206.082 178.157 207.009 179.861 207.009 179.861L208.344 185.456C208.344 185.456 207.417 185.641 206.453 186.011C205.525 186.382 205.711 187.16 205.711 187.16H210.236C210.236 187.16 210.977 179.12 211.163 178.157C211.348 177.157 210.607 173.34 210.236 172.155Z" fill="#656C70"/>
<path d="M230.004 185.975C230.931 185.604 231.896 185.419 231.896 185.419L231.413 181.269C231.413 181.269 233.157 180.491 233.898 180.565C233.935 180.306 233.973 180.047 234.01 179.787C234.343 178.046 234.677 176.045 235.308 175.23C234.418 174.86 233.824 173.97 233.824 172.97C233.824 171.599 234.937 170.525 236.272 170.525C237.644 170.525 238.72 171.636 238.72 172.97C238.72 173.896 238.201 174.711 237.459 175.119C237.607 175.267 237.719 175.489 237.793 175.712C238.164 176.897 238.98 180.713 238.72 181.677C238.201 183.9 234.047 183.307 234.047 183.307C234.047 183.307 234.047 183.27 234.01 183.159C233.898 184.937 233.787 187.086 233.787 187.086H229.262C229.262 187.123 229.04 186.382 230.004 185.975Z" fill="#656C70"/>
<path d="M236.68 187.123C238.974 187.123 240.834 185.265 240.834 182.973C240.834 180.681 238.974 178.823 236.68 178.823C234.386 178.823 232.526 180.681 232.526 182.973C232.526 185.265 234.386 187.123 236.68 187.123Z" fill="#656C70"/>
<path d="M174.482 184.418C175.483 184.492 176.41 184.789 176.41 184.789L177.041 182.121C177.078 182.01 177.115 181.936 177.152 181.825L178.042 179.639C177.931 179.379 177.152 177.786 177.523 176.045C177.894 174.341 178.228 172.303 178.858 171.488C178.005 171.117 177.375 170.228 177.375 169.228C177.375 167.857 178.487 166.782 179.86 166.782C181.232 166.782 182.308 167.894 182.308 169.265C182.308 170.191 181.788 171.006 181.01 171.414C181.158 171.562 181.269 171.784 181.343 172.044C181.714 173.229 182.382 177.045 182.233 178.009C182.122 178.675 181.9 179.157 181.566 179.491C181.566 180.009 181.64 182.38 181.64 182.38L183.457 185.678L181.751 187.382H179.86C179.86 187.382 179.674 186.826 180.045 186.456C180.231 186.271 180.972 185.9 180.972 185.9L181.529 185.344L179.6 182.899C179.563 182.788 179.526 182.714 179.526 182.603L179.452 181.862C179.081 182.418 178.747 182.899 178.747 182.899L177.301 187.234L173.258 185.159C173.295 185.085 173.48 184.307 174.482 184.418Z" fill="#656C70"/>
<path d="M159.869 184.233C158.867 184.307 157.94 184.603 157.94 184.603L157.31 181.936C157.273 181.824 157.235 181.75 157.198 181.639L156.308 179.453C156.42 179.194 157.198 177.601 156.827 175.859C156.457 174.155 156.123 172.117 155.492 171.302C156.345 170.932 156.976 170.043 156.976 169.042C156.976 167.671 155.863 166.597 154.491 166.597C153.119 166.597 152.043 167.708 152.043 169.079C152.043 170.006 152.562 170.821 153.341 171.228C153.193 171.376 153.082 171.599 153.007 171.858C152.636 173.044 151.969 176.86 152.117 177.823C152.228 178.49 152.451 178.972 152.785 179.305C152.785 179.824 152.711 182.195 152.711 182.195L150.893 185.492L152.599 187.197H154.491C154.491 187.197 154.676 186.641 154.305 186.27C154.12 186.085 153.378 185.715 153.378 185.715L152.822 185.159L154.75 182.714C154.788 182.603 154.825 182.528 154.825 182.417L154.899 181.676C155.27 182.232 155.604 182.714 155.604 182.714L157.05 187.049L161.093 184.974C161.056 184.863 160.907 184.122 159.869 184.233Z" fill="#656C70"/>
<path d="M170.921 213.836C170.847 213.577 170.736 213.392 170.588 213.243C171.366 212.836 171.849 212.021 171.849 211.094C171.849 209.724 170.736 208.649 169.401 208.649C168.065 208.649 166.953 209.761 166.953 211.094C166.953 212.095 167.546 212.984 168.436 213.355C167.806 214.17 167.472 216.207 167.138 217.912C166.767 219.838 167.695 221.543 167.695 221.543L169.03 227.137C169.03 227.137 168.103 227.322 167.138 227.693C166.211 228.063 166.396 228.841 166.396 228.841H170.921C170.921 228.841 171.663 220.802 171.849 219.838C172.071 218.838 171.292 215.022 170.921 213.836Z" fill="#656C70"/>
<path d="M144.403 213.836C144.477 213.577 144.588 213.392 144.736 213.243C143.958 212.836 143.475 212.021 143.475 211.094C143.475 209.724 144.588 208.649 145.923 208.649C147.258 208.649 148.371 209.761 148.371 211.094C148.371 212.095 147.778 212.984 146.888 213.355C147.518 214.17 147.852 216.207 148.186 217.912C148.557 219.838 147.629 221.543 147.629 221.543L146.294 227.137C146.294 227.137 147.221 227.322 148.186 227.693C149.15 228.063 148.927 228.841 148.927 228.841H144.403C144.403 228.841 143.661 220.802 143.475 219.838C143.253 218.838 143.995 215.022 144.403 213.836Z" fill="#656C70"/>
<path d="M234.306 212.799C234.381 212.539 234.492 212.354 234.64 212.206C233.861 211.798 233.379 210.983 233.379 210.057C233.379 208.686 234.492 207.612 235.827 207.612C237.199 207.612 238.275 208.723 238.275 210.057C238.275 211.057 237.681 211.946 236.791 212.317C237.422 213.132 237.756 215.17 238.089 216.874C238.46 218.801 237.533 220.505 237.533 220.505L236.198 226.099C236.198 226.099 237.125 226.285 238.089 226.655C239.054 227.026 238.831 227.804 238.831 227.804H234.306C234.306 227.804 233.565 219.764 233.379 218.801C233.157 217.8 233.898 213.984 234.306 212.799Z" fill="#656C70"/>
<path d="M158.719 220.098C159.09 219.542 159.09 217.837 159.016 216.985C158.942 216.133 158.534 214.095 157.977 213.688C157.718 213.54 157.458 213.391 157.235 213.317C157.235 213.132 157.198 213.021 157.198 213.021C157.977 212.613 158.459 211.798 158.459 210.872C158.459 209.501 157.347 208.427 156.011 208.427C154.639 208.427 153.564 209.538 153.564 210.872C153.564 211.798 154.083 212.613 154.825 213.021C154.825 213.021 154.788 213.132 154.788 213.317C154.565 213.391 154.268 213.54 154.046 213.688C153.489 214.058 153.081 216.096 153.007 216.985C152.933 217.837 152.933 219.542 153.304 220.098C153.675 220.653 154.342 221.32 154.342 221.32L154.936 227.73C153.972 228.026 154.12 228.582 154.12 228.582H155.01H157.05H157.94C157.94 228.582 158.088 227.915 157.124 227.656L157.718 221.32C157.681 221.32 158.348 220.69 158.719 220.098Z" fill="#656C70"/>
<path d="M192.136 225.877C191.135 225.951 190.208 226.248 190.208 226.248L189.577 223.58C189.54 223.469 189.503 223.395 189.466 223.284L188.576 221.098C188.687 220.838 189.466 219.245 189.095 217.504C188.724 215.8 188.39 213.762 187.76 212.947C188.613 212.576 189.243 211.687 189.243 210.687C189.243 209.316 188.131 208.241 186.758 208.241C185.386 208.241 184.31 209.353 184.31 210.724C184.31 211.65 184.83 212.465 185.609 212.873C185.46 213.021 185.349 213.243 185.275 213.503C184.904 214.688 184.236 218.504 184.385 219.468C184.496 220.134 184.718 220.616 185.052 220.95C185.052 221.468 184.978 223.839 184.978 223.839L183.161 227.137L184.867 228.841H186.758C186.758 228.841 186.944 228.285 186.573 227.915C186.387 227.73 185.646 227.359 185.646 227.359L185.089 226.803L187.018 224.358C187.055 224.247 187.092 224.173 187.092 224.062L187.166 223.321C187.537 223.877 187.871 224.358 187.871 224.358L189.317 228.693L193.36 226.618C193.323 226.544 193.138 225.803 192.136 225.877Z" fill="#656C70"/>
<path d="M219.174 225.062C220.175 225.136 221.103 225.432 221.103 225.432L221.733 222.765C221.77 222.654 221.807 222.579 221.844 222.468L222.735 220.282C222.623 220.023 221.844 218.43 222.215 216.689C222.586 214.984 222.92 212.946 223.55 212.131C222.697 211.761 222.067 210.872 222.067 209.871C222.067 208.5 223.18 207.426 224.552 207.426C225.924 207.426 227 208.538 227 209.908C227 210.835 226.48 211.65 225.702 212.057C225.85 212.205 225.961 212.428 226.035 212.687C226.406 213.873 227.074 217.689 226.926 218.652C226.814 219.319 226.592 219.801 226.258 220.134C226.258 220.653 226.332 223.024 226.332 223.024L228.149 226.322L226.443 228.026H224.552C224.552 228.026 224.366 227.47 224.737 227.1C224.923 226.914 225.665 226.544 225.665 226.544L226.221 225.988L224.292 223.543C224.255 223.432 224.218 223.358 224.218 223.246L224.144 222.505C223.773 223.061 223.439 223.543 223.439 223.543L221.993 227.878L217.95 225.803C217.987 225.729 218.135 224.988 219.174 225.062Z" fill="#656C70"/>
<path d="M162.688 256.629C162.762 256.37 162.873 256.185 163.021 256.037C162.243 255.629 161.76 254.814 161.76 253.888C161.76 252.517 162.873 251.442 164.208 251.442C165.543 251.442 166.656 252.554 166.656 253.888C166.656 254.888 166.063 255.777 165.173 256.148C165.803 256.963 166.137 259.001 166.471 260.705C166.841 262.631 165.914 264.336 165.914 264.336L164.579 269.93C164.579 269.93 165.506 270.116 166.471 270.486C167.398 270.857 167.212 271.635 167.212 271.635H162.688C162.688 271.635 161.946 263.595 161.76 262.631C161.575 261.631 162.317 257.815 162.688 256.629Z" fill="#656C70"/>
<path d="M182.271 270.449C181.343 270.078 180.379 269.893 180.379 269.893L180.861 265.743C180.861 265.743 179.118 264.965 178.376 265.04C178.339 264.78 178.302 264.521 178.265 264.261C177.931 262.52 177.597 260.519 176.967 259.704C177.857 259.334 178.45 258.445 178.45 257.444C178.45 256.073 177.338 254.999 176.003 254.999C174.667 254.999 173.555 256.111 173.555 257.444C173.555 258.371 174.074 259.186 174.816 259.593C174.667 259.741 174.556 259.964 174.482 260.186C174.111 261.372 173.295 265.188 173.555 266.151C174.074 268.374 178.228 267.781 178.228 267.781C178.228 267.781 178.228 267.744 178.265 267.633C178.376 269.411 178.488 271.56 178.488 271.56H183.012C183.012 271.597 183.198 270.856 182.271 270.449Z" fill="#656C70"/>
<path d="M175.595 271.597C177.889 271.597 179.749 269.739 179.749 267.447C179.749 265.156 177.889 263.298 175.595 263.298C173.3 263.298 171.441 265.156 171.441 267.447C171.441 269.739 173.3 271.597 175.595 271.597Z" fill="#656C70"/>
<path d="M147.852 270.411C148.779 270.04 149.743 269.855 149.743 269.855L149.261 265.706C149.261 265.706 151.005 264.928 151.746 265.002C151.783 264.742 151.82 264.483 151.858 264.224C152.191 262.482 152.525 260.482 153.156 259.667C152.266 259.296 151.672 258.407 151.672 257.406C151.672 256.036 152.785 254.961 154.12 254.961C155.455 254.961 156.568 256.073 156.568 257.406C156.568 258.333 156.049 259.148 155.307 259.555C155.455 259.704 155.566 259.926 155.641 260.148C156.012 261.334 156.827 265.15 156.568 266.113C156.049 268.336 151.895 267.743 151.895 267.743C151.895 267.743 151.895 267.706 151.858 267.595C151.746 269.374 151.635 271.522 151.635 271.522H147.11C147.073 271.559 146.888 270.819 147.852 270.411Z" fill="#656C70"/>
<path d="M252.999 268.893C251.998 268.967 251.071 269.263 251.071 269.263L250.44 266.596C250.403 266.485 250.366 266.411 250.329 266.299L249.439 264.113C249.55 263.854 250.329 262.261 249.958 260.52C249.587 258.815 249.253 256.778 248.623 255.962C249.476 255.592 250.106 254.703 250.106 253.702C250.106 252.332 248.994 251.257 247.621 251.257C246.249 251.257 245.174 252.369 245.174 253.739C245.174 254.666 245.693 255.481 246.472 255.888C246.323 256.037 246.212 256.259 246.138 256.518C245.767 257.704 245.099 261.52 245.248 262.483C245.359 263.15 245.581 263.632 245.915 263.965C245.915 264.484 245.841 266.855 245.841 266.855L244.024 270.153L245.73 271.857H247.621C247.621 271.857 247.807 271.301 247.436 270.931C247.25 270.745 246.509 270.375 246.509 270.375L245.952 269.819L247.881 267.374C247.918 267.263 247.955 267.189 247.955 267.077L248.029 266.336C248.4 266.892 248.734 267.374 248.734 267.374L250.18 271.709L254.223 269.634C254.186 269.56 254.001 268.782 252.999 268.893Z" fill="#656C70"/>
<path d="M267.575 268.707C268.577 268.781 269.504 269.078 269.504 269.078L270.134 266.41C270.171 266.299 270.209 266.225 270.246 266.114L271.136 263.928C271.025 263.669 270.246 262.075 270.617 260.334C270.987 258.63 271.321 256.592 271.952 255.777C271.099 255.406 270.468 254.517 270.468 253.517C270.468 252.146 271.581 251.072 272.953 251.072C274.325 251.072 275.401 252.183 275.401 253.554C275.401 254.48 274.882 255.295 274.103 255.703C274.251 255.851 274.363 256.073 274.437 256.333C274.808 257.518 275.475 261.334 275.327 262.298C275.216 262.965 274.993 263.446 274.659 263.78C274.659 264.298 274.733 266.67 274.733 266.67L276.551 269.967L274.845 271.671H272.953C272.953 271.671 272.768 271.116 273.139 270.745C273.324 270.56 274.066 270.189 274.066 270.189L274.622 269.634L272.694 267.188C272.656 267.077 272.619 267.003 272.619 266.892L272.545 266.151C272.174 266.707 271.84 267.188 271.84 267.188L270.394 271.523L266.351 269.448C266.388 269.374 266.574 268.596 267.575 268.707Z" fill="#656C70"/>
<path d="M147.963 298.791C147.889 298.532 147.778 298.346 147.629 298.198C148.408 297.791 148.89 296.976 148.89 296.049C148.89 294.678 147.778 293.604 146.443 293.604C145.107 293.604 143.995 294.716 143.995 296.049C143.995 297.05 144.588 297.939 145.478 298.309C144.848 299.124 144.514 301.162 144.18 302.867C143.809 304.793 144.736 306.497 144.736 306.497L146.072 312.092C146.072 312.092 145.144 312.277 144.18 312.648C143.253 313.018 143.438 313.796 143.438 313.796H147.963C147.963 313.796 148.705 305.756 148.89 304.793C149.076 303.793 148.334 299.94 147.963 298.791Z" fill="#656C70"/>
<path d="M252.146 298.977C252.072 298.718 251.961 298.533 251.812 298.384C252.591 297.977 253.073 297.162 253.073 296.236C253.073 294.865 251.961 293.79 250.626 293.79C249.253 293.79 248.178 294.902 248.178 296.236C248.178 297.236 248.771 298.125 249.661 298.496C249.031 299.311 248.697 301.348 248.363 303.053C247.992 304.979 248.919 306.684 248.919 306.684L250.255 312.278C250.255 312.278 249.327 312.464 248.363 312.834C247.436 313.205 247.621 313.983 247.621 313.983H252.146C252.146 313.983 252.888 305.943 253.073 304.979C253.259 303.979 252.517 300.126 252.146 298.977Z" fill="#656C70"/>
<path d="M157.458 298.792C157.532 298.532 157.643 298.347 157.792 298.199C157.013 297.791 156.531 296.976 156.531 296.05C156.531 294.679 157.643 293.605 158.979 293.605C160.314 293.605 161.427 294.716 161.427 296.05C161.427 297.05 160.833 297.94 159.943 298.31C160.573 299.125 160.907 301.163 161.241 302.867C161.612 304.794 160.685 306.498 160.685 306.498L159.35 312.093C159.35 312.093 160.277 312.278 161.241 312.648C162.168 313.019 161.983 313.797 161.983 313.797H157.458C157.458 313.797 156.716 305.757 156.531 304.794C156.345 303.793 157.087 299.94 157.458 298.792Z" fill="#656C70"/>
<path d="M174.741 311.018C173.74 311.092 172.813 311.389 172.813 311.389L172.182 308.721C172.145 308.61 172.108 308.536 172.071 308.425L171.181 306.239C171.292 305.98 172.071 304.386 171.7 302.645C171.329 300.941 170.995 298.903 170.365 298.088C171.218 297.717 171.849 296.828 171.849 295.828C171.849 294.457 170.736 293.383 169.364 293.383C167.991 293.383 166.916 294.494 166.916 295.865C166.916 296.791 167.435 297.606 168.214 298.014C168.065 298.162 167.954 298.384 167.88 298.644C167.509 299.829 166.842 303.645 166.99 304.609C167.101 305.276 167.324 305.757 167.657 306.091C167.657 306.609 167.583 308.981 167.583 308.981L165.766 312.278L167.472 313.982H169.364C169.364 313.982 169.549 313.427 169.178 313.056C168.993 312.871 168.251 312.5 168.251 312.5L167.695 311.945L169.623 309.499C169.66 309.388 169.697 309.314 169.697 309.203L169.772 308.462C170.142 309.018 170.476 309.499 170.476 309.499L171.923 313.834L175.965 311.759C175.928 311.685 175.78 310.944 174.741 311.018Z" fill="#656C70"/>
<path d="M219.508 311.018C218.506 311.092 217.579 311.389 217.579 311.389L216.949 308.721C216.912 308.61 216.875 308.536 216.837 308.425L215.947 306.239C216.059 305.98 216.837 304.386 216.467 302.645C216.096 300.941 215.762 298.903 215.131 298.088C215.984 297.717 216.615 296.828 216.615 295.828C216.615 294.457 215.502 293.383 214.13 293.383C212.758 293.383 211.682 294.494 211.682 295.865C211.682 296.791 212.201 297.606 212.98 298.014C212.832 298.162 212.721 298.384 212.646 298.644C212.276 299.829 211.608 303.645 211.756 304.609C211.868 305.276 212.09 305.757 212.424 306.091C212.424 306.609 212.35 308.981 212.35 308.981L210.532 312.278L212.238 313.982H214.13C214.13 313.982 214.315 313.427 213.945 313.056C213.759 312.871 213.017 312.5 213.017 312.5L212.461 311.945L214.39 309.499C214.427 309.388 214.464 309.314 214.464 309.203L214.538 308.462C214.909 309.018 215.243 309.499 215.243 309.499L216.689 313.834L220.732 311.759C220.695 311.685 220.509 310.944 219.508 311.018Z" fill="#656C70"/>
<path d="M271.618 311.018C270.617 311.092 269.689 311.389 269.689 311.389L269.059 308.721C269.022 308.61 268.985 308.536 268.948 308.425L268.057 306.239C268.169 305.98 268.948 304.386 268.577 302.645C268.206 300.941 267.872 298.903 267.241 298.088C268.094 297.717 268.725 296.828 268.725 295.828C268.725 294.457 267.612 293.383 266.24 293.383C264.868 293.383 263.792 294.494 263.792 295.865C263.792 296.791 264.311 297.606 265.09 298.014C264.942 298.162 264.831 298.384 264.756 298.644C264.386 299.829 263.718 303.645 263.866 304.609C263.978 305.276 264.2 305.757 264.534 306.091C264.534 306.609 264.46 308.981 264.46 308.981L262.642 312.278L264.348 313.982H266.24C266.24 313.982 266.425 313.427 266.055 313.056C265.869 312.871 265.127 312.5 265.127 312.5L264.571 311.945L266.5 309.499C266.537 309.388 266.574 309.314 266.574 309.203L266.648 308.462C267.019 309.018 267.353 309.499 267.353 309.499L268.799 313.834L272.842 311.759C272.805 311.685 272.656 310.944 271.618 311.018Z" fill="#656C70"/>
<path d="M229.077 311.018C230.078 311.092 231.005 311.389 231.005 311.389L231.636 308.721C231.673 308.61 231.71 308.536 231.747 308.425L232.637 306.239C232.526 305.98 231.747 304.386 232.118 302.645C232.489 300.941 232.823 298.903 233.453 298.088C232.6 297.717 231.97 296.828 231.97 295.828C231.97 294.457 233.082 293.383 234.455 293.383C235.827 293.383 236.903 294.494 236.903 295.865C236.903 296.791 236.383 297.606 235.605 298.014C235.753 298.162 235.864 298.384 235.938 298.644C236.309 299.829 236.977 303.645 236.828 304.609C236.717 305.276 236.495 305.757 236.161 306.091C236.161 306.609 236.235 308.981 236.235 308.981L238.052 312.278L236.346 313.982H234.455C234.455 313.982 234.269 313.427 234.64 313.056C234.826 312.871 235.567 312.5 235.567 312.5L236.124 311.945L234.195 309.499C234.158 309.388 234.121 309.314 234.121 309.203L234.047 308.462C233.676 309.018 233.342 309.499 233.342 309.499L231.896 313.834L227.853 311.759C227.89 311.685 228.075 310.944 229.077 311.018Z" fill="#656C70"/>
<path d="M194.362 311.018C195.363 311.092 196.29 311.389 196.29 311.389L196.921 308.721C196.958 308.61 196.995 308.536 197.032 308.425L197.922 306.239C197.811 305.98 197.032 304.386 197.403 302.645C197.774 300.941 198.108 298.903 198.738 298.088C197.885 297.717 197.255 296.828 197.255 295.828C197.255 294.457 198.367 293.383 199.739 293.383C201.112 293.383 202.187 294.494 202.187 295.865C202.187 296.791 201.668 297.606 200.889 298.014C201.038 298.162 201.149 298.384 201.223 298.644C201.594 299.829 202.262 303.645 202.113 304.609C202.002 305.276 201.779 305.757 201.446 306.091C201.446 306.609 201.52 308.981 201.52 308.981L203.337 312.278L201.631 313.982H199.739C199.739 313.982 199.554 313.427 199.925 313.056C200.11 312.871 200.852 312.5 200.852 312.5L201.409 311.945L199.48 309.499C199.443 309.388 199.406 309.314 199.406 309.203L199.332 308.462C198.961 309.018 198.627 309.499 198.627 309.499L197.18 313.834L193.138 311.759C193.175 311.685 193.323 310.944 194.362 311.018Z" fill="#656C70"/>
<path d="M252.443 340.584C252.369 340.324 252.258 340.139 252.109 339.991C252.888 339.583 253.37 338.768 253.37 337.842C253.37 336.471 252.258 335.397 250.922 335.397C249.55 335.397 248.474 336.508 248.474 337.842C248.474 338.842 249.068 339.732 249.958 340.102C249.327 340.917 248.994 342.955 248.66 344.659C248.289 346.586 249.216 348.29 249.216 348.29L250.551 353.885C250.551 353.885 249.624 354.07 248.66 354.44C247.696 354.811 247.918 355.589 247.918 355.589H252.443C252.443 355.589 253.185 347.549 253.37 346.586C253.556 345.585 252.814 341.769 252.443 340.584Z" fill="#656C70"/>
<path d="M229.003 340.584C229.077 340.324 229.188 340.139 229.336 339.991C228.558 339.583 228.075 338.768 228.075 337.842C228.075 336.471 229.188 335.397 230.523 335.397C231.896 335.397 232.971 336.508 232.971 337.842C232.971 338.842 232.378 339.732 231.488 340.102C232.118 340.917 232.452 342.955 232.786 344.659C233.157 346.586 232.229 348.29 232.229 348.29L230.894 353.885C230.894 353.885 231.821 354.07 232.786 354.44C233.75 354.811 233.528 355.589 233.528 355.589H229.003C229.003 355.589 228.261 347.549 228.075 346.586C227.853 345.585 228.632 341.769 229.003 340.584Z" fill="#656C70"/>
<path d="M243.838 347.067C244.209 346.512 244.209 344.807 244.135 343.955C244.061 343.103 243.653 341.065 243.097 340.658C242.837 340.51 242.577 340.361 242.355 340.287C242.355 340.102 242.318 339.991 242.318 339.991C243.097 339.583 243.579 338.768 243.579 337.842C243.579 336.471 242.466 335.397 241.131 335.397C239.759 335.397 238.683 336.508 238.683 337.842C238.683 338.768 239.202 339.583 239.944 339.991C239.944 339.991 239.907 340.102 239.907 340.287C239.684 340.361 239.388 340.51 239.165 340.658C238.609 341.028 238.201 343.066 238.127 343.955C238.052 344.807 238.052 346.512 238.423 347.067C238.794 347.623 239.462 348.29 239.462 348.29L240.055 354.7C239.091 354.996 239.239 355.552 239.239 355.552H240.129H242.169H243.059C243.059 355.552 243.208 354.885 242.243 354.626L242.837 348.29C242.8 348.29 243.467 347.623 243.838 347.067Z" fill="#656C70"/>
<path d="M273.621 347.289C273.992 346.734 273.992 345.029 273.917 344.177C273.843 343.325 273.435 341.287 272.879 340.88C272.619 340.732 272.36 340.583 272.137 340.509C272.137 340.324 272.1 340.213 272.1 340.213C272.879 339.805 273.361 338.99 273.361 338.064C273.361 336.693 272.248 335.619 270.913 335.619C269.541 335.619 268.465 336.73 268.465 338.064C268.465 338.99 268.985 339.805 269.726 340.213C269.726 340.213 269.689 340.324 269.689 340.509C269.467 340.583 269.17 340.732 268.948 340.88C268.391 341.25 267.983 343.288 267.909 344.177C267.835 345.029 267.835 346.734 268.206 347.289C268.577 347.845 269.244 348.512 269.244 348.512L269.838 354.922C268.873 355.218 269.022 355.774 269.022 355.774H269.912H271.952H272.842C272.842 355.774 272.99 355.107 272.026 354.848L272.619 348.512C272.582 348.512 273.25 347.882 273.621 347.289Z" fill="#656C70"/>
<path d="M180.676 354.403C179.749 354.033 178.784 353.848 178.784 353.848L179.266 349.698C179.266 349.698 177.523 348.92 176.781 348.994C176.744 348.735 176.707 348.475 176.67 348.216C176.336 346.475 176.003 344.474 175.372 343.659C176.262 343.288 176.856 342.399 176.856 341.399C176.856 340.028 175.743 338.953 174.408 338.953C173.072 338.953 171.96 340.065 171.96 341.399C171.96 342.325 172.479 343.14 173.221 343.548C173.072 343.696 172.961 343.918 172.887 344.14C172.516 345.326 171.7 349.142 171.96 350.105C172.479 352.328 176.633 351.736 176.633 351.736C176.633 351.736 176.633 351.699 176.67 351.587C176.781 353.366 176.893 355.515 176.893 355.515H181.418C181.418 355.552 181.603 354.811 180.676 354.403Z" fill="#656C70"/>
<path d="M174 355.551C176.294 355.551 178.154 353.694 178.154 351.402C178.154 349.11 176.294 347.252 174 347.252C171.706 347.252 169.846 349.11 169.846 351.402C169.846 353.694 171.706 355.551 174 355.551Z" fill="#656C70"/>
<path d="M192.248 354.403C191.32 354.033 190.356 353.848 190.356 353.848L190.838 349.698C190.838 349.698 189.095 348.92 188.353 348.994C188.316 348.735 188.279 348.475 188.242 348.216C187.908 346.475 187.574 344.474 186.944 343.659C187.834 343.288 188.427 342.399 188.427 341.399C188.427 340.028 187.315 338.953 185.98 338.953C184.644 338.953 183.532 340.065 183.532 341.399C183.532 342.325 184.051 343.14 184.793 343.548C184.644 343.696 184.533 343.918 184.459 344.14C184.088 345.326 183.272 349.142 183.532 350.105C184.051 352.328 188.205 351.736 188.205 351.736C188.205 351.736 188.205 351.699 188.242 351.587C188.353 353.366 188.464 355.515 188.464 355.515H192.989C192.989 355.552 193.175 354.811 192.248 354.403Z" fill="#656C70"/>
<path d="M149.187 354.366C150.114 353.996 151.079 353.81 151.079 353.81L150.597 349.661C150.597 349.661 152.34 348.883 153.082 348.957C153.119 348.698 153.156 348.438 153.193 348.179C153.527 346.438 153.86 344.437 154.491 343.622C153.601 343.251 153.007 342.362 153.007 341.362C153.007 339.991 154.12 338.917 155.455 338.917C156.79 338.917 157.903 340.028 157.903 341.362C157.903 342.288 157.384 343.103 156.642 343.511C156.79 343.659 156.902 343.881 156.976 344.103C157.347 345.289 158.163 349.105 157.903 350.068C157.384 352.291 153.23 351.699 153.23 351.699C153.23 351.699 153.23 351.662 153.193 351.55C153.082 353.329 152.97 355.478 152.97 355.478H148.445C148.445 355.515 148.26 354.774 149.187 354.366Z" fill="#656C70"/>
<path d="M167.027 347.067C167.398 346.512 167.398 344.807 167.324 343.955C167.25 343.103 166.842 341.065 166.285 340.658C166.026 340.51 165.766 340.361 165.543 340.287C165.543 340.102 165.506 339.991 165.506 339.991C166.285 339.583 166.767 338.768 166.767 337.842C166.767 336.471 165.655 335.397 164.319 335.397C162.947 335.397 161.872 336.508 161.872 337.842C161.872 338.768 162.391 339.583 163.133 339.991C163.133 339.991 163.096 340.102 163.096 340.287C162.873 340.361 162.576 340.51 162.354 340.658C161.797 341.028 161.389 343.066 161.315 343.955C161.241 344.807 161.241 346.512 161.612 347.067C161.983 347.623 162.65 348.29 162.65 348.29L163.244 354.7C162.28 354.996 162.428 355.552 162.428 355.552H163.318H165.358H166.248C166.248 355.552 166.396 354.885 165.432 354.626L166.026 348.29C165.988 348.29 166.619 347.623 167.027 347.067Z" fill="#656C70"/>
<path opacity="0.5" d="M209.976 296.938C230.255 296.938 246.694 280.516 246.694 260.258C246.694 240.001 230.255 223.579 209.976 223.579C189.697 223.579 173.258 240.001 173.258 260.258C173.258 280.516 189.697 296.938 209.976 296.938Z" fill="white"/>
<path opacity="0.5" d="M209.976 284.23C223.229 284.23 233.973 273.498 233.973 260.259C233.973 247.02 223.229 236.287 209.976 236.287C196.723 236.287 185.979 247.02 185.979 260.259C185.979 273.498 196.723 284.23 209.976 284.23Z" fill="white"/>
<path d="M213.314 262.259C213.759 261.555 213.759 259.48 213.685 258.443C213.574 257.368 213.092 254.886 212.387 254.441C212.09 254.256 211.756 254.108 211.46 253.96C211.46 253.737 211.423 253.626 211.423 253.589C212.35 253.07 212.98 252.107 212.98 250.959C212.98 249.291 211.645 247.958 209.976 247.958C208.307 247.958 206.972 249.291 206.972 250.959C206.972 252.107 207.602 253.07 208.53 253.589C208.53 253.589 208.492 253.737 208.492 253.96C208.196 254.071 207.862 254.219 207.565 254.441C206.861 254.886 206.378 257.405 206.267 258.443C206.156 259.517 206.156 261.592 206.638 262.259C207.083 262.963 207.899 263.741 207.899 263.741L208.604 271.595C207.417 271.966 207.602 272.67 207.602 272.67H208.715H211.237H212.313C212.313 272.67 212.461 271.855 211.348 271.521L212.053 263.778C212.053 263.741 212.832 262.926 213.314 262.259Z" fill="#3877F6"/>
</g>
<defs>
<clipPath id="clip0">
<rect width="361.729" height="418.368" fill="white" transform="translate(20.8963 0.242676)"/>
</clipPath>
</defs>
</svg>
