<svg width="204" height="36" viewBox="0 0 204 36" fill="none" xmlns="http://www.w3.org/2000/svg">
<path d="M97.9787 23.7515L85.0405 29.8312C85.7765 30.8992 86.8956 31.6372 88.1615 31.8895C89.5448 32.1473 90.9738 31.9397 92.2284 31.2987C93.0571 30.9423 93.806 30.4209 94.43 29.766C95.0541 29.111 95.5405 28.3359 95.8601 27.487L99.0379 28.9164C98.7003 30.1726 98.0491 31.3208 97.1464 32.2516C96.1407 33.2954 94.9466 34.1364 93.6281 34.7292C91.9903 35.5471 90.1779 35.9463 88.3507 35.8918C86.7019 35.84 85.1041 35.3034 83.7542 34.348C82.3766 33.3909 81.2844 32.0729 80.5954 30.5364C79.8637 29.0212 79.5439 27.3377 79.6685 25.6574C79.7841 24.0464 80.3479 22.5007 81.2952 21.1977C82.3047 19.8572 83.6224 18.7839 85.1348 18.0701C86.6472 17.3563 88.3091 17.0235 89.9774 17.1001C91.5496 17.219 93.057 17.7803 94.328 18.7201C95.7013 19.7622 96.7884 21.1396 97.4869 22.7224C97.5247 22.8367 97.6949 23.3132 97.9787 23.7515ZM84.0191 23.58C83.5033 24.7387 83.4292 26.0481 83.811 27.2583L93.1741 22.8558C92.5254 21.7623 91.4891 20.9575 90.2744 20.6038C89.0597 20.2501 87.7571 20.3738 86.6294 20.95C85.4339 21.4563 84.4692 22.3943 83.9245 23.58H84.0191Z" fill="#3877F6"/>
<path d="M115.003 35.7392L110.349 29.3928L105.658 35.7392H100.986L108.08 26.4387L101.289 17.4241H106.018L110.482 23.4275L115.003 17.4241H119.542L112.733 26.3815L119.845 35.7392H115.003Z" fill="#3877F6"/>
<path d="M135.621 34.7483C135.062 35.1891 134.417 35.5072 133.729 35.6822C132.995 35.882 132.238 35.9846 131.478 35.9871C129.787 36.0956 128.121 35.5272 126.844 34.4053C126.268 33.7965 125.825 33.0738 125.542 32.2831C125.258 31.4924 125.141 30.6509 125.198 29.8122V20.9881H122.266V17.5957H125.255V13.3838H126.692C127.44 13.3838 128.157 13.683 128.685 14.2155C129.214 14.7481 129.511 15.4704 129.511 16.2235V17.5957H134.391V21.0262H129.511V29.7359C129.46 30.4586 129.683 31.1738 130.135 31.7371C130.379 31.9879 130.675 32.1812 131.002 32.3031C131.33 32.425 131.679 32.4725 132.027 32.4422C132.882 32.4731 133.722 32.2111 134.41 31.699L135.621 34.7483Z" fill="#3877F6"/>
<path d="M171.749 23.7133L158.868 29.793C159.604 30.861 160.723 31.599 161.989 31.8513C163.378 32.1134 164.814 31.9057 166.074 31.2605C166.916 30.8992 167.674 30.3652 168.299 29.6925C168.924 29.0198 169.404 28.2232 169.706 27.3535L172.884 28.7638C172.549 30.0268 171.898 31.1819 170.992 32.1181C169.997 33.1658 168.809 34.0074 167.493 34.5957C165.849 35.4137 164.03 35.8128 162.197 35.7583C160.549 35.6999 158.953 35.1639 157.6 34.2145C156.228 33.2517 155.137 31.9353 154.441 30.4028C153.71 28.8877 153.39 27.2042 153.515 25.5239C153.638 23.9114 154.208 22.3661 155.16 21.0642C156.132 19.7057 157.435 18.6226 158.943 17.9195C160.428 17.1857 162.078 16.8572 163.729 16.9666C165.307 17.086 166.82 17.647 168.098 18.5866C169.461 19.6346 170.541 21.0108 171.238 22.5889C171.465 22.7985 171.617 23.1987 171.749 23.7133ZM157.789 23.5418C157.28 24.7028 157.213 26.0122 157.6 27.2201L166.945 22.8176C166.303 21.722 165.27 20.9147 164.057 20.5605C162.844 20.2063 161.543 20.3319 160.419 20.9117C159.271 21.442 158.356 22.3777 157.846 23.5418H157.789Z" fill="#3877F6"/>
<path d="M202.695 31.6987C202.007 32.2109 201.166 32.4729 200.311 32.442C199.964 32.4683 199.616 32.419 199.289 32.2973C198.963 32.1756 198.666 31.9845 198.42 31.7368C197.952 31.1666 197.721 30.4356 197.777 29.6976V20.9879H202.638V17.5955H197.777V16.2614C197.772 15.5065 197.471 14.7842 196.939 14.2522C196.408 13.7202 195.689 13.4216 194.939 13.4217H193.521V17.5955H183.401V16.452C183.401 14.5461 184.29 13.517 186.087 13.517C186.926 13.5174 187.744 13.7768 188.433 14.2602L189.624 11.0394C188.275 10.2833 186.734 9.94681 185.196 10.0723C183.657 10.1978 182.19 10.7797 180.98 11.7445C180.403 12.3649 179.958 13.0973 179.672 13.8968C179.386 14.6964 179.264 15.5464 179.315 16.3948V17.5955H175.74V21.026H179.315V35.7772H183.571V20.9879H193.578V29.8119C193.522 30.649 193.637 31.4887 193.917 32.2789C194.197 33.069 194.635 33.7927 195.204 34.405C196.485 35.5215 198.148 36.0892 199.839 35.9869C200.605 35.9842 201.368 35.8817 202.108 35.6819C202.799 35.5143 203.445 35.1954 204 34.7481L202.695 31.6987Z" fill="#3877F6"/>
<path d="M72.7833 18.9487C72.0451 18.2602 71.1782 17.727 70.233 17.3801C69.2879 17.0332 68.2836 16.8797 67.2789 16.9285H64.2713C62.3478 16.8693 60.4742 17.5508 59.0318 18.8344C58.2963 19.6387 57.7322 20.5864 57.3743 21.619C57.0165 22.6515 56.8724 23.747 56.951 24.8378V35.682H61.207V25.5048C61.1114 24.1959 61.5176 22.8999 62.342 21.8837C62.7565 21.4609 63.2567 21.1331 63.8083 20.9226C64.3599 20.7121 64.9501 20.6239 65.5387 20.664H66.2953C66.8836 20.6264 67.4731 20.7158 68.0243 20.9261C68.5756 21.1365 69.076 21.463 69.492 21.8837C70.3012 22.9072 70.6994 24.1995 70.608 25.5048V35.7964H74.8451V24.9521C74.9262 23.8627 74.7852 22.768 74.4306 21.7355C74.076 20.7031 73.5154 19.7547 72.7833 18.9487Z" fill="#3877F6"/>
<path d="M149.682 31.4513C149.002 31.9816 148.157 32.2518 147.298 32.2136C146.952 32.2363 146.604 32.1852 146.278 32.0637C145.952 31.9422 145.655 31.753 145.407 31.5084C144.949 30.9327 144.719 30.2058 144.764 29.4692V13.1552C144.764 12.397 144.465 11.6698 143.933 11.1337C143.401 10.5976 142.679 10.2964 141.926 10.2964H140.527V29.5645C140.467 30.4034 140.583 31.2455 140.867 32.0366C141.15 32.8277 141.595 33.5502 142.172 34.1576C142.904 34.84 143.806 35.3079 144.783 35.5107C145.441 35.6588 146.113 35.7354 146.788 35.7394C147.555 35.7464 148.319 35.6437 149.058 35.4345C149.748 35.2668 150.394 34.948 150.949 34.5006L149.682 31.4513Z" fill="#3877F6"/>
<path opacity="0.5" d="M11.91 22.7656L0 12.8352V35.7208H11.91V22.7656Z" fill="#3877F6"/>
<path d="M19.6227 3.97216H11.91V0L0 9.93041L11.91 19.862V15.8841H17.9027C18.459 15.8842 19.0098 15.9941 19.5236 16.2073C20.0374 16.4205 20.5042 16.733 20.8973 17.1268C21.2904 17.5207 21.6021 17.9881 21.8145 18.5026C22.0269 19.017 22.136 19.5682 22.1354 20.1248V35.7209H34.0465V18.4038C34.0465 16.5086 33.6734 14.632 32.9486 12.8811C32.2237 11.1301 31.1613 9.5392 29.8219 8.1991C28.4825 6.85899 26.8924 5.79597 25.1425 5.07071C23.3925 4.34545 21.5169 3.97216 19.6227 3.97216Z" fill="#3877F6"/>
</svg>
