<svg width="731" height="129" viewBox="0 0 731 129" fill="none" xmlns="http://www.w3.org/2000/svg">
<path d="M351.091 67.1089L304.729 88.8943C307.366 92.7213 311.376 95.366 315.913 96.27C320.869 97.1939 325.99 96.45 330.485 94.1529C333.455 92.8756 336.138 91.0076 338.375 88.6606C340.611 86.3137 342.354 83.5361 343.499 80.4943L354.886 85.6163C353.676 90.1177 351.343 94.232 348.108 97.5675C344.505 101.308 340.226 104.321 335.501 106.446C329.632 109.376 323.138 110.807 316.59 110.611C310.682 110.426 304.957 108.503 300.12 105.08C295.183 101.65 291.269 96.9272 288.8 91.4212C286.179 85.9919 285.033 79.9592 285.479 73.9382C285.893 68.1653 287.914 62.6269 291.308 57.9577C294.926 53.1542 299.647 49.3082 305.067 46.7505C310.486 44.1928 316.441 43 322.419 43.2748C328.053 43.7006 333.455 45.7119 338.009 49.0796C342.93 52.8138 346.825 57.7495 349.328 63.4211C349.464 63.8309 350.074 65.5382 351.091 67.1089ZM301.069 66.4943C299.22 70.6461 298.955 75.3383 300.323 79.6748L333.874 63.8992C331.55 59.9809 327.836 57.097 323.484 55.8295C319.131 54.562 314.463 55.0053 310.422 57.0699C306.138 58.8842 302.682 62.2453 300.73 66.4943H301.069Z" fill="#3877F6"/>
<path d="M412.093 110.065L395.419 87.3237L378.61 110.065H361.868L387.286 76.7383L362.952 44.4358H379.898L395.894 65.948L412.093 44.4358H428.361L403.96 76.5334L429.445 110.065H412.093Z" fill="#3877F6"/>
<path d="M485.974 106.514C483.971 108.094 481.662 109.233 479.196 109.86C476.566 110.577 473.854 110.944 471.13 110.953C465.07 111.342 459.102 109.305 454.524 105.285C452.462 103.103 450.873 100.514 449.857 97.6803C448.842 94.8468 448.423 91.8316 448.627 88.8261V57.2066H438.121V45.0505H448.83V29.9578H453.982C456.66 29.9578 459.229 31.0298 461.123 32.9381C463.017 34.8464 464.081 37.4346 464.081 40.1334V45.0505H481.568V57.3432H464.081V88.553C463.898 91.1424 464.697 93.7054 466.318 95.7237C467.193 96.6224 468.254 97.315 469.426 97.7518C470.598 98.1887 471.851 98.359 473.096 98.2505C476.159 98.3613 479.17 97.4224 481.636 95.5871L485.974 106.514Z" fill="#3877F6"/>
<path d="M615.434 66.972L569.276 88.7574C571.913 92.5844 575.923 95.2291 580.459 96.1331C585.438 97.0725 590.585 96.3282 595.1 94.016C598.116 92.7216 600.83 90.8081 603.071 88.3976C605.312 85.9871 607.029 83.1325 608.114 80.016L619.501 85.0696C618.302 89.5954 615.968 93.7345 612.723 97.0892C609.157 100.843 604.897 103.859 600.184 105.967C594.291 108.898 587.774 110.329 581.205 110.133C575.301 109.924 569.582 108.003 564.734 104.601C559.816 101.151 555.907 96.4343 553.415 90.9428C550.793 85.5135 549.647 79.4809 550.094 73.4599C550.535 67.6817 552.578 62.1445 555.991 57.4793C559.473 52.6115 564.142 48.7304 569.547 46.211C574.868 43.5816 580.781 42.4042 586.695 42.7964C592.349 43.2241 597.772 45.2346 602.353 48.6013C607.236 52.3567 611.105 57.2881 613.604 62.9428C614.417 63.694 614.96 65.1281 615.434 66.972ZM565.412 66.3574C563.586 70.5177 563.345 75.2098 564.734 79.5379L598.218 63.7623C595.917 59.8366 592.216 56.9437 587.87 55.6745C583.524 54.4053 578.861 54.8554 574.834 56.933C570.721 58.8332 567.441 62.186 565.616 66.3574H565.412Z" fill="#3877F6"/>
<path d="M726.323 95.5866C723.857 97.4219 720.847 98.3608 717.783 98.2501C716.539 98.3445 715.29 98.1677 714.12 97.7316C712.951 97.2955 711.888 96.6105 711.005 95.7232C709.327 93.6799 708.501 91.0604 708.7 88.4159V57.2061H726.12V45.05H708.7V40.2695C708.682 37.5645 707.603 34.9764 705.698 33.07C703.794 31.1637 701.218 30.0938 698.533 30.0939H693.45V45.05H657.187V40.9524C657.187 34.1231 660.373 30.4353 666.812 30.4353C669.818 30.4369 672.751 31.3665 675.217 33.0987L679.487 21.5573C674.653 18.8481 669.132 17.6423 663.619 18.092C658.106 18.5417 652.849 20.6268 648.511 24.0841C646.445 26.3071 644.85 28.9314 643.825 31.7965C642.799 34.6616 642.364 37.7073 642.546 40.7475V45.05H629.736V57.3427H642.546V110.201H657.797V57.2061H693.653V88.8257C693.453 91.8251 693.867 94.8341 694.869 97.6655C695.872 100.497 697.442 103.09 699.482 105.284C704.071 109.285 710.031 111.319 716.088 110.953C718.835 110.943 721.569 110.576 724.222 109.86C726.698 109.259 729.012 108.117 731 106.513L726.323 95.5866Z" fill="#3877F6"/>
<path d="M260.807 49.8992C258.162 47.4321 255.055 45.5212 251.669 44.2782C248.282 43.0353 244.683 42.4852 241.083 42.6601H230.306C223.413 42.448 216.699 44.8901 211.531 49.4894C208.895 52.3717 206.874 55.7676 205.592 59.4676C204.309 63.1675 203.793 67.0929 204.075 71.0016V109.86H219.325V73.3919C218.983 68.7016 220.438 64.0575 223.392 60.4163C224.878 58.9012 226.67 57.7266 228.647 56.9723C230.623 56.2181 232.738 55.902 234.847 56.0455H237.558C239.666 55.9109 241.779 56.2312 243.754 56.9849C245.729 57.7387 247.522 58.9085 249.013 60.4163C251.913 64.0839 253.34 68.7146 253.012 73.3919V110.27H268.195V71.4114C268.486 67.5075 267.98 63.5849 266.71 59.8852C265.439 56.1855 263.43 52.7871 260.807 49.8992Z" fill="#3877F6"/>
<path d="M536.36 94.6995C533.924 96.6 530.897 97.568 527.819 97.4312C526.577 97.5124 525.331 97.3294 524.164 96.8941C522.996 96.4588 521.932 95.7809 521.041 94.9044C519.4 92.8412 518.578 90.2366 518.737 87.5971V29.1385C518.737 26.4216 517.666 23.816 515.759 21.8949C513.852 19.9738 511.266 18.8945 508.57 18.8945H503.554V87.9385C503.342 90.9447 503.757 93.9623 504.773 96.797C505.788 99.6317 507.382 102.221 509.451 104.397C512.072 106.842 515.306 108.519 518.805 109.246C521.164 109.776 523.572 110.051 525.989 110.065C528.738 110.09 531.477 109.722 534.123 108.973C536.599 108.372 538.913 107.229 540.901 105.626L536.36 94.6995Z" fill="#3877F6"/>
<path opacity="0.5" d="M42.6775 81.5771L0 45.9932V128H42.6775V81.5771Z" fill="#3877F6"/>
<path d="M70.3147 14.2336H42.6775V0L0 35.584L42.6775 71.172V56.918H64.1513C66.1446 56.9185 68.1183 57.3121 69.9596 58.0762C71.8008 58.8403 73.4735 59.9599 74.8821 61.3712C76.2907 62.7824 77.4075 64.4575 78.1687 66.3008C78.9299 68.1441 79.3206 70.1194 79.3184 72.1138V128H122V65.947C122 59.1559 120.663 52.4313 118.066 46.1571C115.468 39.883 111.661 34.1821 106.862 29.3801C102.062 24.5781 96.3646 20.7689 90.0938 18.17C83.8231 15.5712 77.1021 14.2336 70.3147 14.2336Z" fill="#3877F6"/>
</svg>
