<svg width="80" height="80" viewBox="0 0 80 80" fill="none" xmlns="http://www.w3.org/2000/svg">
<path fill-rule="evenodd" clip-rule="evenodd" d="M52.1457 6H27.0548C22.7266 6 19.2139 9.51273 19.2139 13.8409V67.1591C19.2139 71.4873 22.7266 75 27.0548 75H52.1457C56.4739 75 59.9866 71.4873 59.9866 67.1591V13.8409C59.9866 9.51273 56.4739 6 52.1457 6ZM39.6004 71.8638C36.9972 71.8638 34.8959 69.7624 34.8959 67.1592C34.8959 64.556 36.9972 62.4547 39.6004 62.4547C42.2036 62.4547 44.3049 64.556 44.3049 67.1592C44.3049 69.7624 42.2036 71.8638 39.6004 71.8638ZM25.4858 59.3181H53.7131V15.409H25.4858V59.3181Z" fill="#3877F6"/>
</svg>
