<svg width="80" height="80" viewBox="0 0 80 80" fill="none" xmlns="http://www.w3.org/2000/svg">
<path fill-rule="evenodd" clip-rule="evenodd" d="M70.8262 66.0554L53.3037 48.0462C56.4446 43.6451 58.1272 38.3242 58.1038 32.8668C58.0438 18.6213 46.8288 7.08254 32.963 7.00026C26.3274 6.96942 19.9554 9.66632 15.2665 14.4902C10.5776 19.314 7.9613 25.8641 8.00043 32.6813C8.06036 46.9281 19.2764 58.4679 33.1435 58.5502C38.4771 58.574 43.6752 56.8251 47.9619 53.5648L47.9802 53.5507L65.4867 71.5457C66.4332 72.5659 67.8436 72.9788 69.1714 72.6245C70.4991 72.2703 71.5357 71.2044 71.8794 69.84C72.2231 68.4756 71.82 67.0269 70.8262 66.0554ZM33.1246 53.3932C22.0316 53.3277 13.0589 44.0968 13.0102 32.7C12.9802 27.247 15.0734 22.0079 18.8238 18.1491C22.5743 14.2903 27.6706 12.132 32.9784 12.1547C44.0714 12.2203 53.0441 21.4511 53.0928 32.8479C53.1228 38.301 51.0296 43.54 47.2792 47.3988C43.5288 51.2576 38.4324 53.4159 33.1246 53.3932Z" fill="#3877F6"/>
</svg>
