<svg width="80" height="80" viewBox="0 0 80 80" fill="none" xmlns="http://www.w3.org/2000/svg">
<path fill-rule="evenodd" clip-rule="evenodd" d="M70.2026 9.7974C70.9939 10.5886 71.2203 11.7835 70.7734 12.8094L45.7033 70.3646C45.1884 71.5468 43.9147 72.2055 42.6524 71.9425C41.39 71.6795 40.4854 70.567 40.4854 69.2775V39.5146H10.7225C9.43304 39.5146 8.32049 38.61 8.05749 37.3476C7.7945 36.0853 8.45322 34.8116 9.63538 34.2967L67.1906 9.22656C68.2165 8.7797 69.4114 9.00615 70.2026 9.7974ZM23.7887 34.0702H43.2076C44.711 34.0702 45.9298 35.289 45.9298 36.7924V56.2113L63.017 16.983L23.7887 34.0702Z" fill="#3877F6"/>
</svg>
