<svg width="80" height="80" viewBox="0 0 80 80" fill="none" xmlns="http://www.w3.org/2000/svg">
<path fill-rule="evenodd" clip-rule="evenodd" d="M29.0202 16.9792L16.7368 28.052C16.2626 28.48 15.6447 28.7165 15.0045 28.7165H2.57622C1.15486 28.7165 0 29.8597 0 31.2711V39.0644V46.8585C0 48.269 1.15486 49.4132 2.57622 49.4132H15.0045C15.6447 49.4132 16.2626 49.6497 16.7368 50.0768L29.0202 61.1504C30.1644 62.1817 32 61.3764 32 59.8434V39.0644V18.2862C32 16.7533 30.1644 15.948 29.0202 16.9792Z" fill="#3877F6"/>
<path fill-rule="evenodd" clip-rule="evenodd" d="M46.6443 22.3659C45.7672 21.0277 43.9276 20.6218 42.535 21.469C41.1424 22.3114 40.7242 24.0813 41.6023 25.4195C43.3525 28.0929 46.6115 33.0683 46.6115 39.0609V39.0638V39.0676C46.6115 45.0611 43.3525 50.0365 41.6023 52.7099C40.7242 54.0481 41.1424 55.817 42.535 56.6604C43.9276 57.5077 45.7672 57.1017 46.6443 55.7636C48.7164 52.6011 52.5714 46.7154 52.5714 39.0676V39.0638V39.0609C52.5714 31.414 48.7164 25.5284 46.6443 22.3659Z" fill="#3877F6"/>
<path fill-rule="evenodd" clip-rule="evenodd" d="M80 40.1888C80 24.9533 72.9126 13.0228 69.1044 6.61214C68.2908 5.24388 66.5825 4.82979 65.2917 5.69411C63.9999 6.5555 63.6119 8.3652 64.4255 9.73444C67.9361 15.644 74.4716 26.6458 74.4716 40.1888V40.1917V40.1956C74.4716 53.7386 67.9361 64.7403 64.4255 70.649C63.6119 72.0192 63.9999 73.8279 65.2917 74.6903C66.5825 75.5546 68.2908 75.1405 69.1044 73.7722C72.9126 67.3616 80 55.4301 80 40.1956V40.1917V40.1888Z" fill="#3877F6"/>
<path fill-rule="evenodd" clip-rule="evenodd" d="M66.2858 39.0642V39.0613C66.2858 27.3672 60.7353 18.2573 57.7551 13.3634C56.928 12.0074 55.1941 11.5992 53.8832 12.4532C52.5714 13.3082 52.1775 15.0994 53.0037 16.4554C55.6835 20.8542 60.6717 29.0423 60.6717 39.0613V39.0642V39.0681C60.6717 49.0871 55.6835 57.2753 53.0037 61.674C52.1775 63.03 52.5714 64.8212 53.8832 65.6762C55.1941 66.5302 56.928 66.1221 57.7551 64.7661C60.7353 59.8721 66.2858 50.7623 66.2858 39.0681V39.0642Z" fill="#3877F6"/>
</svg>
