<svg width="80" height="80" viewBox="0 0 80 80" fill="none" xmlns="http://www.w3.org/2000/svg">
<g clip-path="url(#clip0)">
<path fill-rule="evenodd" clip-rule="evenodd" d="M27.6666 20.9855H44.1065L39.505 11.5543C38.8356 10.18 39.1703 8.52837 40.3215 7.52422C41.4744 6.5167 43.1581 6.41358 44.4243 7.2622L65.7784 21.5569C66.7166 22.184 67.2795 23.2389 67.2795 24.3664C67.2795 25.494 66.7166 26.5488 65.7784 27.176L44.4243 41.4707C43.8529 41.8544 43.1987 42.0421 42.5445 42.0421C41.7483 42.0421 40.9538 41.7614 40.3215 41.2087C39.1703 40.2045 38.8356 38.5529 39.505 37.1786L44.1065 27.7474H27.6666C23.006 27.7474 19.2142 31.5391 19.2142 36.1998V76.7881H12.4523V36.1998C12.4523 27.8099 19.2768 20.9855 27.6666 20.9855Z" fill="#3877F6"/>
</g>
<defs>
<clipPath id="clip0">
<rect width="71" height="71" fill="white" transform="translate(4 5)"/>
</clipPath>
</defs>
</svg>
